<svg width="100" height="100" viewBox="0 0 100 100" fill="none" xmlns="http://www.w3.org/2000/svg">
    <mask id="mask0_81_113" style="mask-type:alpha" maskUnits="userSpaceOnUse" x="0" y="0" width="100" height="100">
        <rect width="100" height="100" fill="#E1CC1B"/>
    </mask>
    <g mask="url(#mask0_81_113)">
        <path fill-rule="evenodd" clip-rule="evenodd" d="M75.289 51.1459C78.2712 46.4847 80 40.9442 80 35C80 18.4315 66.5685 5 50 5C33.4315 5 20 18.4315 20 35C20 40.9442 21.7288 46.4847 24.711 51.1459C7.05984 60.3015 -5 78.7424 -5 100C-5 130.376 19.6243 155 50 155C80.3757 155 105 130.376 105 100C105 78.7424 92.9402 60.3015 75.289 51.1459Z" fill="#E1CC1B"/>
        <path fill-rule="evenodd" clip-rule="evenodd" d="M67.2802 53.0665C72.0373 48.5151 75 42.1036 75 35C75 21.1929 63.8071 10 50 10C36.1929 10 25 21.1929 25 35C25 42.1036 27.9627 48.5151 32.7198 53.0665C13.6211 60.1006 0 78.4596 0 100C0 127.614 22.3858 150 50 150C77.6142 150 100 127.614 100 100C100 78.4596 86.3789 60.1006 67.2802 53.0665Z" fill="#C9271D"/>
    </g>
</svg>
