<svg width="100" height="100" viewBox="0 0 100 100" fill="none" xmlns="http://www.w3.org/2000/svg">
    <mask id="mask0_112_284" style="mask-type:alpha" maskUnits="userSpaceOnUse" x="0" y="0" width="100" height="100">
        <rect width="100" height="100" fill="#D9D9D9"/>
    </mask>
    <g mask="url(#mask0_112_284)">
        <path fill-rule="evenodd" clip-rule="evenodd" d="M31 10C31 7.23858 33.2386 5 36 5H81C83.7614 5 86 7.23858 86 10V78C86 80.7614 83.7614 83 81 83H69V95C69 97.7614 66.7614 100 64 100H19C16.2386 100 14 97.7614 14 95V27C14 24.2386 16.2386 22 19 22H31V10ZM31 78V32H24V90H59V83H36C33.2386 83 31 80.7614 31 78ZM76 15H41V73H76V15Z" fill="#404045"/>
        <path fill-rule="evenodd" clip-rule="evenodd" d="M31 10C31 7.23858 33.2386 5 36 5H81C83.7614 5 86 7.23858 86 10V78C86 80.7614 83.7614 83 81 83H69V95C69 97.7614 66.7614 100 64 100H19C16.2386 100 14 97.7614 14 95V27C14 24.2386 16.2386 22 19 22H31V10ZM31 78V32H24V90H59V83H36C33.2386 83 31 80.7614 31 78ZM76 15H41V73H76V15Z" fill="#404045"/>
        <path d="M47.3335 0H69.8335V20C69.8335 22.7614 67.5949 25 64.8335 25H52.3335C49.5721 25 47.3335 22.7614 47.3335 20V0Z" fill="#404045"/>
    </g>
</svg>
