<svg width="100" height="100" viewBox="0 0 100 100" fill="none" xmlns="http://www.w3.org/2000/svg">
    <mask id="mask0_0_1" style="mask-type:alpha" maskUnits="userSpaceOnUse" x="0" y="0" width="100" height="100">
        <rect x="100.361" y="0.301331" width="100" height="100" transform="rotate(90 100.361 0.301331)" fill="#D9D9D9"/>
    </mask>
    <g mask="url(#mask0_0_1)">
        <path fill-rule="evenodd" clip-rule="evenodd" d="M85.7166 -20.0002L92.7876 -12.9291L53.2401 26.6185V34.648L43.3405 34.648L43.3406 22.4766V22.3758L85.7166 -20.0002ZM54.8319 59.6479L54.8321 67.4535L15.2844 107.001L22.3554 114.072L64.7316 71.6962L64.7318 71.5958L64.7318 59.6482L54.8319 59.6479Z" fill="#404045"/>
        <path fill-rule="evenodd" clip-rule="evenodd" d="M121.072 15.3552L114.001 8.28409L74.5088 47.7762L43.3406 47.7764L43.3404 57.2755H79.1515L121.072 15.3552ZM-13.0002 78.7166L-5.92917 85.7877L33.5629 46.2956L64.7314 46.2957L64.7316 36.7966L28.9201 36.7963L-13.0002 78.7166Z" fill="#404045"/>
    </g>
</svg>
