<svg width="100" height="100" viewBox="0 0 100 100" fill="none" xmlns="http://www.w3.org/2000/svg">
    <mask id="mask0_124_1838" style="mask-type:alpha" maskUnits="userSpaceOnUse" x="0" y="0" width="100" height="100">
        <rect width="100" height="100" fill="#D9D9D9"/>
    </mask>
    <g mask="url(#mask0_124_1838)">
        <path fill-rule="evenodd" clip-rule="evenodd" d="M100.236 50H87.682C78.5187 60.4224 65.0864 67 50.1179 67C35.1493 67 21.7171 60.4224 12.5537 50H0C10.7324 66.2667 29.1717 77 50.1179 77C71.064 77 89.5033 66.2667 100.236 50Z" fill="#404045"/>
        <path fill-rule="evenodd" clip-rule="evenodd" d="M0.117798 50L12.6715 50C21.8348 39.5776 35.2671 33 50.2357 33C65.2042 33 78.6365 39.5776 87.7998 50L100.354 50C89.6211 33.7333 71.1818 23 50.2357 23C29.2895 23 10.8502 33.7333 0.117798 50Z" fill="#404045"/>
        <path fill-rule="evenodd" clip-rule="evenodd" d="M49.5 67C59.165 67 67 59.165 67 49.5C67 39.835 59.165 32 49.5 32C39.835 32 32 39.835 32 49.5C32 59.165 39.835 67 49.5 67ZM50 60C55.5228 60 60 55.5228 60 50C60 44.4772 55.5228 40 50 40C44.4772 40 40 44.4772 40 50C40 55.5228 44.4772 60 50 60Z" fill="#404045"/>
        <rect x="92.3508" y="0.74231" width="10" height="130.402" transform="rotate(45 92.3508 0.74231)" fill="#404045"/>
    </g>
</svg>
