<svg width="230" height="230" viewBox="0 0 230 230" fill="none" xmlns="http://www.w3.org/2000/svg">
    <mask id="mask0_183_625" style="mask-type:alpha" maskUnits="userSpaceOnUse" x="0" y="0" width="230" height="230">
        <rect width="230" height="230" fill="#D9D9D9"/>
    </mask>
    <g mask="url(#mask0_183_625)">
        <ellipse cx="114.849" cy="115.276" rx="75" ry="125" transform="rotate(35.7 114.849 115.276)" fill="#C9271D"/>
        <path fill-rule="evenodd" clip-rule="evenodd" d="M73.5073 105.819L35.6101 133.051L60.8969 168.242C68.4168 178.707 82.9964 181.094 93.4615 173.574C103.927 166.054 106.314 151.475 98.7941 141.01L73.5073 105.819ZM65.3865 111.655L43.731 127.216L69.0178 162.406C73.3149 168.386 81.6461 169.75 87.6261 165.453C93.6061 161.156 94.9704 152.825 90.6733 146.845L65.3865 111.655ZM84.3383 98.0434L84.343 98.0332L133.136 120.255L105.991 82.4777L114.112 76.6423L153.014 130.781L144.942 136.582L144.928 136.613L144.91 136.605L144.893 136.617L144.873 136.589L96.0619 114.359L123.238 152.178L115.117 158.013L76.2142 103.874L84.3351 98.0389L84.3383 98.0434ZM130.435 93.6457C122.915 83.1807 125.302 68.601 135.767 61.0811C146.232 53.5612 160.812 55.9488 168.332 66.4138L180.003 82.6555C187.522 93.1205 185.135 107.7 174.67 115.22C164.205 122.74 149.625 120.352 142.105 109.887L130.435 93.6457ZM138.555 87.8104C134.258 81.8304 135.622 73.4991 141.602 69.202C147.582 64.9049 155.914 66.2692 160.211 72.2493L171.882 88.4909C176.179 94.4709 174.814 102.802 168.834 107.099C162.854 111.396 154.523 110.032 150.226 104.052L138.555 87.8104Z" fill="#141414"/>
        <path fill-rule="evenodd" clip-rule="evenodd" d="M131.196 88.9937C123.677 78.5286 126.064 63.949 136.529 56.4291C146.994 48.9092 161.574 51.2967 169.094 61.7617L180.764 78.0034C188.284 88.4684 185.897 103.048 175.432 110.568C164.967 118.088 150.387 115.7 142.867 105.235L131.196 88.9937ZM139.317 83.1582C135.02 77.1782 136.384 68.8469 142.365 64.5499C148.345 60.2528 156.676 61.6171 160.973 67.5971L172.644 83.8388C176.941 89.8188 175.576 98.15 169.596 102.447C163.616 106.744 155.285 105.38 150.988 99.3999L139.317 83.1582ZM85.1003 93.3912L85.1049 93.3811L133.898 115.603L106.753 77.8257L114.873 71.9903L153.776 126.129L145.704 131.93L145.69 131.961L145.671 131.953L145.655 131.965L145.635 131.936L96.824 109.706L124 147.526L115.879 153.361L76.9762 99.2221L85.0971 93.3867L85.1003 93.3912ZM74.2693 101.167L36.3721 128.399L61.6589 163.589C69.1788 174.055 83.7584 176.442 94.2235 168.922C104.688 161.402 107.076 146.823 99.5561 136.358L74.2693 101.167ZM91.4352 142.193L66.1485 107.003L44.4929 122.564L69.7797 157.754C74.0768 163.734 82.408 165.098 88.388 160.801C94.368 156.504 95.7323 148.173 91.4352 142.193Z" fill="url(#paint0_linear_183_625)"/>
    </g>
    <defs>
        <linearGradient id="paint0_linear_183_625" x1="95.9249" y1="85.6061" x2="134.838" y2="139.759" gradientUnits="userSpaceOnUse">
            <stop stop-color="#E1CC1B"/>
            <stop offset="1" stop-color="#E1E1E1"/>
        </linearGradient>
    </defs>
</svg>
