<svg width="290" height="240" viewBox="0 0 290 240" fill="none" xmlns="http://www.w3.org/2000/svg">
    <ellipse cx="144.789" cy="119.795" rx="75" ry="125" transform="rotate(65.7 144.789 119.795)" fill="#C9271D"/>
    <path fill-rule="evenodd" clip-rule="evenodd" d="M113.715 90.9342L67.2788 95.5691L71.5827 138.688C72.8626 151.511 84.2952 160.869 97.1181 159.589C109.941 158.309 119.298 146.876 118.019 134.053L113.715 90.9342ZM103.764 91.9274L77.2294 94.5759L81.5333 137.695C82.2646 145.022 88.7975 150.37 96.1249 149.638C103.452 148.907 108.799 142.374 108.068 135.046L103.764 91.9274ZM126.983 89.6155L126.992 89.609L158.137 133.25L153.517 86.9614L163.468 85.9682L170.089 152.305L160.198 153.292L160.17 153.313L160.158 153.296L160.138 153.298L160.135 153.264L128.978 109.607L133.603 155.947L123.653 156.94L117.032 90.6031L126.982 89.6099L126.983 89.6155ZM169.102 108.855C167.822 96.0322 177.18 84.5995 190.002 83.3196C202.825 82.0398 214.258 91.3972 215.538 104.22L217.524 124.121C218.804 136.944 209.447 148.377 196.624 149.657C183.801 150.937 172.368 141.579 171.088 128.756L169.102 108.855ZM179.052 107.862C178.321 100.535 183.668 94.0016 190.996 93.2702C198.323 92.5388 204.856 97.886 205.587 105.213L207.574 125.114C208.305 132.442 202.958 138.975 195.63 139.706C188.303 140.438 181.77 135.09 181.039 127.763L179.052 107.862Z" fill="#141414"/>
    <path fill-rule="evenodd" clip-rule="evenodd" d="M172.088 105.207C170.808 92.3842 180.165 80.9516 192.988 79.6717C205.811 78.3918 217.244 87.7493 218.524 100.572L220.51 120.473C221.79 133.296 212.432 144.729 199.61 146.009C186.787 147.289 175.354 137.931 174.074 125.108L172.088 105.207ZM182.038 104.214C181.307 96.8865 186.654 90.3536 193.981 89.6222C201.309 88.8909 207.842 94.238 208.573 101.565L210.56 121.466C211.291 128.794 205.944 135.327 198.616 136.058C191.289 136.79 184.756 131.442 184.025 124.115L182.038 104.214ZM129.969 85.9675L129.978 85.961L161.123 129.602L156.503 83.3135L166.453 82.3203L173.075 148.657L163.184 149.645L163.155 149.665L163.144 149.649L163.124 149.651L163.121 149.616L131.964 105.959L136.589 152.299L126.639 153.292L120.017 86.9552L129.968 85.962L129.969 85.9675ZM116.701 87.2862L70.2646 91.9212L74.5685 135.04C75.8484 147.863 87.281 157.221 100.104 155.941C112.927 154.661 122.284 143.228 121.004 130.405L116.701 87.2862ZM111.054 131.399L106.75 88.2794L80.2152 90.928L84.519 134.047C85.2504 141.374 91.7833 146.722 99.1107 145.99C106.438 145.259 111.785 138.726 111.054 131.399Z" fill="url(#paint0_linear_183_597)"/>
    <path d="M186.249 206.388C185.265 206.388 184.42 206.04 183.714 205.344C183.018 204.638 182.67 203.793 182.67 202.808C182.67 201.834 183.018 200.999 183.714 200.303C184.42 199.607 185.265 199.259 186.249 199.259C187.204 199.259 188.039 199.607 188.755 200.303C189.471 200.999 189.829 201.834 189.829 202.808C189.829 203.464 189.66 204.066 189.322 204.613C188.994 205.15 188.561 205.582 188.024 205.911C187.487 206.229 186.896 206.388 186.249 206.388ZM202.04 206L193.3 175.455H200.355L205.411 196.678H205.665L211.243 175.455H217.283L222.846 196.723H223.115L228.171 175.455H235.226L226.486 206H220.192L214.375 186.029H214.136L208.334 206H202.04ZM238.682 206V175.455H259.265V180.779H245.14V188.058H258.206V193.382H245.14V200.675H259.324V206H238.682ZM264.399 206V175.455H276.629C278.876 175.455 280.751 175.788 282.252 176.454C283.753 177.12 284.882 178.045 285.638 179.228C286.393 180.401 286.771 181.754 286.771 183.285C286.771 184.478 286.532 185.527 286.055 186.432C285.578 187.327 284.922 188.062 284.086 188.639C283.261 189.206 282.317 189.609 281.253 189.847V190.146C282.416 190.195 283.505 190.523 284.519 191.13C285.543 191.737 286.373 192.587 287.01 193.68C287.646 194.764 287.964 196.057 287.964 197.558C287.964 199.179 287.562 200.626 286.756 201.898C285.961 203.161 284.782 204.161 283.221 204.896C281.66 205.632 279.736 206 277.449 206H264.399ZM270.857 200.72H276.122C277.922 200.72 279.234 200.377 280.059 199.691C280.885 198.995 281.297 198.07 281.297 196.917C281.297 196.072 281.094 195.326 280.686 194.68C280.278 194.033 279.697 193.526 278.941 193.158C278.195 192.79 277.305 192.607 276.271 192.607H270.857V200.72ZM270.857 188.237H275.645C276.53 188.237 277.315 188.082 278.001 187.774C278.697 187.456 279.244 187.009 279.642 186.432C280.05 185.855 280.253 185.164 280.253 184.359C280.253 183.255 279.861 182.365 279.075 181.689C278.3 181.013 277.196 180.675 275.764 180.675H270.857V188.237Z" fill="white"/>
    <defs>
        <linearGradient id="paint0_linear_183_597" x1="143.235" y1="84.6377" x2="149.858" y2="150.992" gradientUnits="userSpaceOnUse">
            <stop stop-color="#E1CC1B"/>
            <stop offset="1" stop-color="#E1E1E1"/>
        </linearGradient>
    </defs>
</svg>
