<svg width="100" height="100" viewBox="0 0 100 100" fill="none" xmlns="http://www.w3.org/2000/svg">
    <path d="M52.1651 8.75L86.8061 68.75C87.7683 70.4167 86.5655 72.5 84.641 72.5H15.359C13.4345 72.5 12.2317 70.4167 13.1939 68.75L47.8349 8.75C48.7972 7.08333 51.2028 7.08333 52.1651 8.75Z" stroke="#FF4646" stroke-width="5"/>
    <circle cx="50" cy="58" r="5" fill="#FF4646"/>
    <ellipse cx="50" cy="39" rx="5" ry="11" fill="#FF4646"/>
    <mask id="path-4-inside-1_28_73" fill="white">
        <path d="M85.179 65.2549C85.6748 66.0096 85.9569 66.8846 85.9955 67.7868C86.034 68.6889 85.8274 69.5847 85.3978 70.379C84.9681 71.1732 84.3314 71.8363 83.5552 72.2978C82.779 72.7593 81.8923 73.0019 80.9893 73L80.9953 70.1814C81.3893 70.1823 81.7762 70.0764 82.1148 69.8751C82.4535 69.6737 82.7312 69.3844 82.9187 69.0379C83.1062 68.6914 83.1963 68.3006 83.1795 67.907C83.1627 67.5133 83.0396 67.1316 82.8233 66.8023L85.179 65.2549Z"/>
    </mask>
    <path d="M85.179 65.2549C85.6748 66.0096 85.9569 66.8846 85.9955 67.7868C86.034 68.6889 85.8274 69.5847 85.3978 70.379C84.9681 71.1732 84.3314 71.8363 83.5552 72.2978C82.779 72.7593 81.8923 73.0019 80.9893 73L80.9953 70.1814C81.3893 70.1823 81.7762 70.0764 82.1148 69.8751C82.4535 69.6737 82.7312 69.3844 82.9187 69.0379C83.1062 68.6914 83.1963 68.3006 83.1795 67.907C83.1627 67.5133 83.0396 67.1316 82.8233 66.8023L85.179 65.2549Z" stroke="#FF4646" stroke-width="10" mask="url(#path-4-inside-1_28_73)"/>
    <mask id="path-5-inside-2_28_73" fill="white">
        <path d="M45.6391 11.554C46.0809 10.7664 46.7277 10.1132 47.5108 9.66363C48.294 9.21408 49.1843 8.98502 50.0872 9.00076C50.9901 9.0165 51.8718 9.27647 52.6388 9.75305C53.4058 10.2296 54.0295 10.905 54.4435 11.7075L51.9386 12.9998C51.758 12.6497 51.4859 12.355 51.1513 12.1471C50.8167 11.9392 50.432 11.8258 50.038 11.8189C49.6441 11.812 49.2557 11.912 48.914 12.1081C48.5723 12.3042 48.2901 12.5892 48.0974 12.9328L45.6391 11.554Z"/>
    </mask>
    <path d="M45.6391 11.554C46.0809 10.7664 46.7277 10.1132 47.5108 9.66363C48.294 9.21408 49.1843 8.98502 50.0872 9.00076C50.9901 9.0165 51.8718 9.27647 52.6388 9.75305C53.4058 10.2296 54.0295 10.905 54.4435 11.7075L51.9386 12.9998C51.758 12.6497 51.4859 12.355 51.1513 12.1471C50.8167 11.9392 50.432 11.8258 50.038 11.8189C49.6441 11.812 49.2557 11.912 48.914 12.1081C48.5723 12.3042 48.2901 12.5892 48.0974 12.9328L45.6391 11.554Z" stroke="#FF4646" stroke-width="10" mask="url(#path-5-inside-2_28_73)"/>
    <mask id="path-6-inside-3_28_73" fill="white">
        <path d="M19 73C18.097 73 17.2108 72.7554 16.4356 72.2923C15.6604 71.8292 15.0251 71.1647 14.5971 70.3696C14.1692 69.5744 13.9646 68.6782 14.005 67.7761C14.0455 66.874 14.3294 65.9997 14.8268 65.246L17.1793 66.7984C16.9623 67.1273 16.8384 67.5087 16.8207 67.9023C16.8031 68.2959 16.8924 68.6869 17.0791 69.0338C17.2658 69.3807 17.543 69.6706 17.8812 69.8727C18.2194 70.0747 18.606 70.1814 19 70.1814L19 73Z"/>
    </mask>
    <path d="M19 73C18.097 73 17.2108 72.7554 16.4356 72.2923C15.6604 71.8292 15.0251 71.1647 14.5971 70.3696C14.1692 69.5744 13.9646 68.6782 14.005 67.7761C14.0455 66.874 14.3294 65.9997 14.8268 65.246L17.1793 66.7984C16.9623 67.1273 16.8384 67.5087 16.8207 67.9023C16.8031 68.2959 16.8924 68.6869 17.0791 69.0338C17.2658 69.3807 17.543 69.6706 17.8812 69.8727C18.2194 70.0747 18.606 70.1814 19 70.1814L19 73Z" stroke="#FF4646" stroke-width="10" mask="url(#path-6-inside-3_28_73)"/>
</svg>
