<svg width="200" height="300" viewBox="0 0 200 300" fill="none" xmlns="http://www.w3.org/2000/svg">
    <rect width="200" height="300" rx="20" fill="#E1E1E1"/>
    <mask id="mask0_165_1648" style="mask-type:alpha" maskUnits="userSpaceOnUse" x="10" y="10" width="180" height="280">
        <rect x="10" y="10" width="180" height="280" rx="10" fill="#141414"/>
    </mask>
    <g mask="url(#mask0_165_1648)">
        <rect x="10" y="10" width="180" height="280" rx="10" fill="#C9271D"/>
        <path fill-rule="evenodd" clip-rule="evenodd" d="M160.754 194.038C201.036 137.973 206.42 72.9303 172.781 48.7615C139.142 24.5927 79.2171 50.45 38.9358 106.515C-1.34551 162.581 -6.72998 227.623 26.9092 251.792C60.5485 275.961 120.473 250.104 160.754 194.038ZM156.694 191.121C195.364 137.298 201.26 75.3796 169.863 52.8221C138.467 30.2645 81.6665 55.61 42.9964 109.433C4.32636 163.256 -1.56994 225.174 29.8267 247.732C61.2233 270.289 118.024 244.944 156.694 191.121Z" fill="#E1E1E1"/>
        <path fill-rule="evenodd" clip-rule="evenodd" d="M87 102C84.2386 102 82 104.239 82 107V127H67C64.2386 127 62 129.239 62 132V197C62 199.761 64.2386 202 67 202H107C109.761 202 112 199.761 112 197V177H127C129.761 177 132 174.761 132 172V107C132 104.239 129.761 102 127 102H87Z" fill="#141414"/>
        <rect x="87.5" y="97.5" width="49" height="74" rx="4.5" fill="#E1E1E1" stroke="#141414"/>
        <rect x="67.5" y="122.5" width="49" height="74" rx="4.5" fill="#E1E1E1" stroke="#141414"/>
        <path fill-rule="evenodd" clip-rule="evenodd" d="M62.3226 33.7477C61.226 35.6471 59.649 37.2244 57.7499 38.3213L57.7507 38.3227L45.7278 45.2641H58.6405V42.4073H63.997V45.2641V50.6206H39V45.3535V45.2641V42.9578L39.1801 42.8538H39.1896L55.0704 33.6851L55.0701 33.6847C57.2045 32.4497 58.6405 30.1418 58.6405 27.4985C58.6405 23.5541 55.4429 20.3565 51.4985 20.3565C47.5541 20.3565 44.3565 23.5541 44.3565 27.4985V30.2659H39V27.4091H39.0004C39.0158 25.2461 39.5925 23.1235 40.6745 21.2492C41.7715 19.3492 43.3493 17.7715 45.2493 16.6745C47.1493 15.5775 49.3046 15 51.4985 15C53.6925 15 55.8478 15.5775 57.7478 16.6745C59.6478 17.7715 61.2256 19.3492 62.3226 21.2492C63.4195 23.1493 63.997 25.3046 63.997 27.4985C63.997 29.6924 63.4195 31.8477 62.3226 33.7477ZM23.9275 21H29.284V29.9275H38.2115V35.284H29.284V44.2115H23.9275V35.284H15V29.9275H23.9275V21Z" fill="#E1E1E1"/>
        <path fill-rule="evenodd" clip-rule="evenodd" d="M137.677 265.872C138.774 263.973 140.351 262.396 142.25 261.299L142.249 261.297L154.272 254.356L141.36 254.356L141.36 257.213L136.003 257.213L136.003 254.356L136.003 248.999L161 248.999L161 254.267L161 254.356L161 256.662L160.82 256.766L160.81 256.766L144.93 265.935L144.93 265.935C142.795 267.17 141.36 269.478 141.36 272.121C141.36 276.066 144.557 279.263 148.502 279.263C152.446 279.263 155.644 276.066 155.644 272.121L155.644 269.354L161 269.354L161 272.211L161 272.211C160.984 274.374 160.408 276.497 159.325 278.371C158.229 280.271 156.651 281.849 154.751 282.946C152.851 284.042 150.695 284.62 148.501 284.62C146.308 284.62 144.152 284.042 142.252 282.946C140.352 281.849 138.774 280.271 137.677 278.371C136.58 276.471 136.003 274.315 136.003 272.121C136.003 269.928 136.58 267.772 137.677 265.872ZM176.073 278.62L170.716 278.62L170.716 269.692L161.789 269.692L161.789 264.336L170.716 264.336L170.716 255.408L176.073 255.408L176.073 264.336L185 264.336L185 269.692L176.073 269.692L176.073 278.62Z" fill="#E1E1E1"/>
    </g>
</svg>
