<svg width="200" height="300" viewBox="0 0 200 300" fill="none" xmlns="http://www.w3.org/2000/svg">
    <rect width="200" height="300" rx="20" fill="#E1E1E1"/>
    <mask id="mask0_156_818" style="mask-type:alpha" maskUnits="userSpaceOnUse" x="10" y="10" width="180" height="280">
        <rect x="10" y="10" width="180" height="280" rx="10" fill="#141414"/>
    </mask>
    <g mask="url(#mask0_156_818)">
        <rect x="10" y="10" width="180" height="280" rx="10" fill="#C9271D"/>
        <path fill-rule="evenodd" clip-rule="evenodd" d="M160.754 194.038C201.036 137.973 206.42 72.9302 172.781 48.7615C139.142 24.5927 79.2171 50.45 38.9358 106.515C-1.34551 162.581 -6.72998 227.623 26.9093 251.792C60.5485 275.961 120.473 250.104 160.754 194.038ZM156.694 191.121C195.364 137.298 201.26 75.3796 169.863 52.8221C138.467 30.2645 81.6665 55.61 42.9964 109.433C4.32636 163.256 -1.56993 225.174 29.8267 247.732C61.2233 270.289 118.024 244.944 156.694 191.121Z" fill="#E1E1E1"/>
        <path fill-rule="evenodd" clip-rule="evenodd" d="M97 103C77.67 103 62 118.67 62 138V168C62 187.33 77.67 203 97 203C116.33 203 132 187.33 132 168V138C132 118.67 116.33 103 97 103ZM97 118C85.9543 118 77 126.954 77 138V168C77 179.046 85.9543 188 97 188C108.046 188 117 179.046 117 168V138C117 126.954 108.046 118 97 118Z" fill="#141414"/>
        <mask id="path-6-inside-1_156_818" fill="white">
            <path fill-rule="evenodd" clip-rule="evenodd" d="M102 98C82.67 98 67 113.67 67 133V163C67 182.33 82.67 198 102 198C121.33 198 137 182.33 137 163V133C137 113.67 121.33 98 102 98ZM102 113C90.9543 113 82 121.954 82 133V163C82 174.046 90.9543 183 102 183C113.046 183 122 174.046 122 163V133C122 121.954 113.046 113 102 113Z"/>
        </mask>
        <path fill-rule="evenodd" clip-rule="evenodd" d="M102 98C82.67 98 67 113.67 67 133V163C67 182.33 82.67 198 102 198C121.33 198 137 182.33 137 163V133C137 113.67 121.33 98 102 98ZM102 113C90.9543 113 82 121.954 82 133V163C82 174.046 90.9543 183 102 183C113.046 183 122 174.046 122 163V133C122 121.954 113.046 113 102 113Z" fill="#E1E1E1"/>
        <path d="M68 133C68 114.222 83.2223 99 102 99V97C82.1177 97 66 113.118 66 133H68ZM68 163V133H66V163H68ZM102 197C83.2223 197 68 181.778 68 163H66C66 182.882 82.1177 199 102 199V197ZM136 163C136 181.778 120.778 197 102 197V199C121.882 199 138 182.882 138 163H136ZM136 133V163H138V133H136ZM102 99C120.778 99 136 114.222 136 133H138C138 113.118 121.882 97 102 97V99ZM83 133C83 122.507 91.5066 114 102 114V112C90.402 112 81 121.402 81 133H83ZM83 163V133H81V163H83ZM102 182C91.5066 182 83 173.493 83 163H81C81 174.598 90.402 184 102 184V182ZM121 163C121 173.493 112.493 182 102 182V184C113.598 184 123 174.598 123 163H121ZM121 133V163H123V133H121ZM102 114C112.493 114 121 122.507 121 133H123C123 121.402 113.598 112 102 112V114Z" fill="#141414" mask="url(#path-6-inside-1_156_818)"/>
        <path fill-rule="evenodd" clip-rule="evenodd" d="M27.5 15C20.5964 15 15 20.5964 15 27.5V38.2143C15 45.1178 20.5964 50.7143 27.5 50.7143C34.4036 50.7143 40 45.1178 40 38.2143V27.5C40 20.5964 34.4036 15 27.5 15ZM27.5 20.3572C23.5551 20.3572 20.3571 23.5551 20.3571 27.5V38.2143C20.3571 42.1592 23.5551 45.3572 27.5 45.3572C31.4448 45.3572 34.6428 42.1592 34.6428 38.2143V27.5C34.6428 23.5551 31.4448 20.3572 27.5 20.3572Z" fill="#E1E1E1"/>
        <path fill-rule="evenodd" clip-rule="evenodd" d="M172.5 249C165.596 249 160 254.596 160 261.5V272.214C160 279.118 165.596 284.714 172.5 284.714C179.404 284.714 185 279.118 185 272.214V261.5C185 254.596 179.404 249 172.5 249ZM172.5 254.357C168.555 254.357 165.357 257.555 165.357 261.5V272.214C165.357 276.159 168.555 279.357 172.5 279.357C176.445 279.357 179.643 276.159 179.643 272.214V261.5C179.643 257.555 176.445 254.357 172.5 254.357Z" fill="#E1E1E1"/>
    </g>
</svg>
