<svg width="200" height="300" viewBox="0 0 200 300" fill="none" xmlns="http://www.w3.org/2000/svg">
    <rect width="200" height="300" rx="20" fill="#E1E1E1"/>
    <mask id="mask0_156_838" style="mask-type:alpha" maskUnits="userSpaceOnUse" x="10" y="10" width="180" height="280">
        <rect x="10" y="10" width="180" height="280" rx="10" fill="#141414"/>
    </mask>
    <g mask="url(#mask0_156_838)">
        <rect x="10" y="10" width="180" height="280" rx="10" fill="#C9271D"/>
        <path fill-rule="evenodd" clip-rule="evenodd" d="M160.754 194.038C201.036 137.973 206.42 72.9303 172.781 48.7615C139.142 24.5927 79.2171 50.45 38.9358 106.515C-1.34551 162.581 -6.72998 227.623 26.9093 251.792C60.5485 275.961 120.473 250.104 160.754 194.038ZM156.694 191.121C195.364 137.298 201.26 75.3796 169.863 52.8221C138.467 30.2645 81.6665 55.61 42.9964 109.433C4.32636 163.256 -1.56993 225.174 29.8267 247.732C61.2233 270.289 118.024 244.944 156.694 191.121Z" fill="#E1E1E1"/>
        <path fill-rule="evenodd" clip-rule="evenodd" d="M81 137V122.113L100.113 103H115V203H100V148V118L81 137Z" fill="#141414"/>
        <mask id="path-6-inside-1_156_838" fill="white">
            <path fill-rule="evenodd" clip-rule="evenodd" d="M86 132V117.113L105.113 98H120V198H105V143V113L86 132Z"/>
        </mask>
        <path fill-rule="evenodd" clip-rule="evenodd" d="M86 132V117.113L105.113 98H120V198H105V143V113L86 132Z" fill="#E1E1E1"/>
        <path d="M86 117.113L85.2929 116.406L85 116.698V117.113H86ZM86 132H85V134.414L86.7071 132.707L86 132ZM105.113 98V97H104.698L104.406 97.2929L105.113 98ZM120 98H121V97H120V98ZM120 198V199H121V198H120ZM105 198H104V199H105V198ZM105 113H106V110.586L104.293 112.293L105 113ZM85 117.113V132H87V117.113H85ZM104.406 97.2929L85.2929 116.406L86.7071 117.82L105.82 98.7071L104.406 97.2929ZM105.113 99H120V97H105.113V99ZM119 98V198H121V98H119ZM120 197H105V199H120V197ZM104 143V198H106V143H104ZM104 113V143H106V113H104ZM86.7071 132.707L105.707 113.707L104.293 112.293L85.2929 131.293L86.7071 132.707Z" fill="#141414" mask="url(#path-6-inside-1_156_838)"/>
        <path fill-rule="evenodd" clip-rule="evenodd" d="M15 27.1414V21.8252L21.8252 15H27.1414V50.71H21.7849V31.0695L21.7849 20.3565L15 27.1414Z" fill="#E1E1E1"/>
        <path fill-rule="evenodd" clip-rule="evenodd" d="M185 272.859L185 278.175L178.175 285L172.859 285L172.859 249.29L178.215 249.29L178.215 268.93L178.215 279.643L185 272.859Z" fill="#E1E1E1"/>
    </g>
</svg>
