<svg width="200" height="300" viewBox="0 0 200 300" fill="none" xmlns="http://www.w3.org/2000/svg">
    <rect width="200" height="300" rx="20" fill="#E1E1E1"/>
    <mask id="mask0_165_849" style="mask-type:alpha" maskUnits="userSpaceOnUse" x="10" y="10" width="180" height="280">
        <rect x="10" y="10" width="180" height="280" rx="10" fill="#141414"/>
    </mask>
    <g mask="url(#mask0_165_849)">
        <rect x="10" y="10" width="180" height="280" rx="10" fill="#C9271D"/>
        <path fill-rule="evenodd" clip-rule="evenodd" d="M160.754 194.038C201.036 137.973 206.42 72.9303 172.781 48.7615C139.142 24.5927 79.2171 50.45 38.9358 106.515C-1.34551 162.581 -6.72998 227.623 26.9092 251.792C60.5485 275.961 120.473 250.104 160.754 194.038ZM156.694 191.121C195.364 137.298 201.26 75.3796 169.863 52.8221C138.467 30.2645 81.6665 55.61 42.9964 109.433C4.32636 163.256 -1.56994 225.174 29.8267 247.732C61.2233 270.289 118.024 244.944 156.694 191.121Z" fill="#E1E1E1"/>
        <path fill-rule="evenodd" clip-rule="evenodd" d="M115.506 168.307C120.824 165.236 125.24 160.819 128.311 155.5C131.383 150.179 133 144.144 133 138C133 131.856 131.383 125.821 128.311 120.5C125.239 115.179 120.821 110.761 115.5 107.689C110.179 104.617 104.144 103 98 103C91.8562 103 85.8207 104.617 80.5 107.689C75.1793 110.761 70.761 115.179 67.6891 120.5C64.6589 125.748 63.0442 131.692 63.0009 137.75H63V138V145.75H78V138C78 126.954 86.9543 118 98 118C109.046 118 118 126.954 118 138C118 145.402 113.979 151.865 108.002 155.323L108.002 155.324L63.531 181H63.5044L63 181.291V187.75V188V202.75H133V187.75V179.75H118V187.75H81.8401L115.508 168.311L115.506 168.307Z" fill="#141414"/>
        <mask id="path-6-inside-1_165_849" fill="white">
            <path fill-rule="evenodd" clip-rule="evenodd" d="M120.506 163.307C125.824 160.236 130.24 155.819 133.311 150.5C136.383 145.179 138 139.144 138 133C138 126.856 136.383 120.821 133.311 115.5C130.239 110.179 125.821 105.761 120.5 102.689C115.179 99.6172 109.144 98 103 98C96.8562 98 90.8207 99.6172 85.5 102.689C80.1793 105.761 75.761 110.179 72.6891 115.5C69.6589 120.748 68.0442 126.692 68.0009 132.75H68V133V140.75H83V133C83 121.954 91.9543 113 103 113C114.046 113 123 121.954 123 133C123 140.402 118.979 146.865 113.002 150.323L113.002 150.324L68.531 176H68.5044L68 176.291V182.75V183V197.75H138V182.75V174.75H123V182.75H86.8401L120.508 163.311L120.506 163.307Z"/>
        </mask>
        <path fill-rule="evenodd" clip-rule="evenodd" d="M120.506 163.307C125.824 160.236 130.24 155.819 133.311 150.5C136.383 145.179 138 139.144 138 133C138 126.856 136.383 120.821 133.311 115.5C130.239 110.179 125.821 105.761 120.5 102.689C115.179 99.6172 109.144 98 103 98C96.8562 98 90.8207 99.6172 85.5 102.689C80.1793 105.761 75.761 110.179 72.6891 115.5C69.6589 120.748 68.0442 126.692 68.0009 132.75H68V133V140.75H83V133C83 121.954 91.9543 113 103 113C114.046 113 123 121.954 123 133C123 140.402 118.979 146.865 113.002 150.323L113.002 150.324L68.531 176H68.5044L68 176.291V182.75V183V197.75H138V182.75V174.75H123V182.75H86.8401L120.508 163.311L120.506 163.307Z" fill="#E1E1E1"/>
        <path d="M133.311 150.5L134.177 151L134.177 151L133.311 150.5ZM120.506 163.307L120.006 162.441L119.141 162.941L119.64 163.807L120.506 163.307ZM133.311 115.5L132.445 116L132.445 116L133.311 115.5ZM120.5 102.689L121 101.823L121 101.823L120.5 102.689ZM85.5 102.689L85 101.823L85 101.823L85.5 102.689ZM72.6891 115.5L71.8231 115L71.8231 115L72.6891 115.5ZM68.0009 132.75V133.75H68.9938L69.0009 132.757L68.0009 132.75ZM68 132.75V131.75H67V132.75H68ZM68 140.75H67V141.75H68V140.75ZM83 140.75V141.75H84V140.75H83ZM113.002 150.323L112.501 149.458L111.637 149.958L112.135 150.822L113.002 150.323ZM113.002 150.324L113.502 151.191L114.367 150.691L113.869 149.825L113.002 150.324ZM68.531 176V177H68.799L69.031 176.866L68.531 176ZM68.5044 176V175H68.2365L68.0044 175.134L68.5044 176ZM68 176.291L67.5 175.425L67 175.714V176.291H68ZM68 197.75H67V198.75H68V197.75ZM138 197.75V198.75H139V197.75H138ZM138 174.75H139V173.75H138V174.75ZM123 174.75V173.75H122V174.75H123ZM123 182.75V183.75H124V182.75H123ZM86.8401 182.75L86.3401 181.884L83.1081 183.75H86.8401V182.75ZM120.508 163.311L121.008 164.177L121.874 163.678L121.375 162.812L120.508 163.311ZM132.445 150C129.462 155.167 125.172 159.458 120.006 162.441L121.006 164.173C126.476 161.014 131.018 156.471 134.177 151L132.445 150ZM137 133C137 138.968 135.429 144.831 132.445 150L134.177 151C137.337 145.527 139 139.319 139 133H137ZM132.445 116C135.429 121.169 137 127.032 137 133H139C139 126.681 137.337 120.473 134.177 115L132.445 116ZM120 103.555C125.169 106.539 129.461 110.831 132.445 116L134.177 115C131.017 109.527 126.473 104.983 121 101.823L120 103.555ZM103 99C108.968 99 114.831 100.571 120 103.555L121 101.823C115.527 98.6634 109.319 97 103 97V99ZM86 103.555C91.1687 100.571 97.0318 99 103 99V97C96.6807 97 90.4727 98.6634 85 101.823L86 103.555ZM73.5551 116C76.5393 110.831 80.8313 106.539 86 103.555L85 101.823C79.5273 104.983 74.9827 109.527 71.8231 115L73.5551 116ZM69.0009 132.757C69.0429 126.873 70.6115 121.098 73.5551 116L71.8231 115C68.7063 120.398 67.0455 126.512 67.0009 132.743L69.0009 132.757ZM68.0009 131.75H68V133.75H68.0009V131.75ZM67 132.75V133H69V132.75H67ZM67 133V140.75H69V133H67ZM68 141.75H83V139.75H68V141.75ZM84 140.75V133H82V140.75H84ZM103 112C91.402 112 82 121.402 82 133H84C84 122.507 92.5066 114 103 114V112ZM124 133C124 121.402 114.598 112 103 112V114C113.493 114 122 122.507 122 133H124ZM113.502 151.189C119.776 147.559 124 140.774 124 133H122C122 140.031 118.182 146.171 112.501 149.458L113.502 151.189ZM113.869 149.825L113.868 149.824L112.135 150.822L112.136 150.824L113.869 149.825ZM69.031 176.866L113.502 151.191L112.502 149.458L68.031 175.134L69.031 176.866ZM68.5044 177H68.531V175H68.5044V177ZM68.5 177.157L69.0044 176.866L68.0044 175.134L67.5 175.425L68.5 177.157ZM69 182.75V176.291H67V182.75H69ZM69 183V182.75H67V183H69ZM69 197.75V183H67V197.75H69ZM138 196.75H68V198.75H138V196.75ZM137 182.75V197.75H139V182.75H137ZM137 174.75V182.75H139V174.75H137ZM123 175.75H138V173.75H123V175.75ZM124 182.75V174.75H122V182.75H124ZM86.8401 183.75H123V181.75H86.8401V183.75ZM120.008 162.445L86.3401 181.884L87.3401 183.616L121.008 164.177L120.008 162.445ZM119.64 163.807L119.642 163.811L121.375 162.812L121.372 162.808L119.64 163.807Z" fill="#141414" mask="url(#path-6-inside-1_165_849)"/>
        <path fill-rule="evenodd" clip-rule="evenodd" d="M33.7499 38.3213C35.649 37.2244 37.226 35.6471 38.3226 33.7477C39.4195 31.8477 39.997 29.6924 39.997 27.4985C39.997 25.3046 39.4195 23.1493 38.3226 21.2492C37.2256 19.3492 35.6478 17.7715 33.7478 16.6745C31.8478 15.5775 29.6925 15 27.4985 15C25.3046 15 23.1493 15.5775 21.2493 16.6745C19.3493 17.7715 17.7715 19.3492 16.6745 21.2492C15.5925 23.1235 15.0158 25.2461 15.0004 27.4091H15V30.2659H20.3565V27.4985C20.3565 23.5541 23.5541 20.3565 27.4985 20.3565C31.4429 20.3565 34.6405 23.5541 34.6405 27.4985C34.6405 30.1418 33.2045 32.4497 31.0701 33.6847L31.0704 33.6851L15.1896 42.8538H15.1801L15 42.9578V45.2641V45.3535V50.6206H39.997V45.2641V42.4073H34.6405V45.2641H21.7278L33.7507 38.3227L33.7499 38.3213Z" fill="#E1E1E1"/>
        <path fill-rule="evenodd" clip-rule="evenodd" d="M166.247 261.679C164.348 262.776 162.771 264.353 161.674 266.252C160.577 268.152 160 270.308 160 272.502C160 274.695 160.577 276.851 161.674 278.751C162.771 280.651 164.349 282.229 166.249 283.326C168.149 284.422 170.304 285 172.498 285C174.692 285 176.848 284.422 178.748 283.326C180.648 282.229 182.225 280.651 183.322 278.751C184.404 276.877 184.981 274.754 184.997 272.591L184.997 272.591L184.997 269.734L179.64 269.734L179.64 272.502C179.64 276.446 176.443 279.643 172.498 279.643C168.554 279.643 165.356 276.446 165.356 272.502C165.356 269.858 166.792 267.55 168.927 266.315L168.927 266.315L184.807 257.146L184.817 257.146L184.997 257.042L184.997 254.736L184.997 254.647L184.997 249.379L160 249.379L160 254.736L160 257.593L165.356 257.593L165.356 254.736L178.269 254.736L166.246 261.677L166.247 261.679Z" fill="#E1E1E1"/>
    </g>
</svg>
