<svg width="200" height="300" viewBox="0 0 200 300" fill="none" xmlns="http://www.w3.org/2000/svg">
    <rect width="200" height="300" rx="20" fill="#E1E1E1"/>
    <mask id="mask0_165_1060" style="mask-type:alpha" maskUnits="userSpaceOnUse" x="10" y="10" width="180" height="280">
        <rect x="10" y="10" width="180" height="280" rx="10" fill="#141414"/>
    </mask>
    <g mask="url(#mask0_165_1060)">
        <rect x="10" y="10" width="180" height="280" rx="10" fill="#C9271D"/>
        <path fill-rule="evenodd" clip-rule="evenodd" d="M160.754 194.038C201.036 137.973 206.42 72.9303 172.781 48.7615C139.142 24.5927 79.2171 50.45 38.9358 106.515C-1.34551 162.581 -6.72998 227.623 26.9092 251.792C60.5485 275.961 120.473 250.104 160.754 194.038ZM156.694 191.121C195.364 137.298 201.26 75.3796 169.863 52.8221C138.467 30.2645 81.6665 55.61 42.9964 109.433C4.32636 163.256 -1.56994 225.174 29.8267 247.732C61.2233 270.289 118.024 244.944 156.694 191.121Z" fill="#E1E1E1"/>
        <path fill-rule="evenodd" clip-rule="evenodd" d="M123 127C123 131.554 121.782 135.824 119.655 139.501C127.782 145.911 133 155.846 133 167C133 186.33 117.33 202 98 202C78.67 202 63 186.33 63 167V167H78V167C78 178.046 86.9543 187 98 187C109.046 187 118 178.046 118 167C118 159.083 113.4 152.241 106.728 149H88V134H105.142C106.91 132.196 108 129.725 108 127C108 121.477 103.523 117 98 117C92.4772 117 88.0001 121.477 88 127H73C73.0001 113.193 84.1929 102 98 102C111.807 102 123 113.193 123 127Z" fill="#141414"/>
        <mask id="path-6-inside-1_165_1060" fill="white">
            <path fill-rule="evenodd" clip-rule="evenodd" d="M128 122C128 126.554 126.782 130.824 124.655 134.501C132.782 140.911 138 150.846 138 162C138 181.33 122.33 197 103 197C83.67 197 68 181.33 68 162V162H83V162C83 173.046 91.9543 182 103 182C114.046 182 123 173.046 123 162C123 154.083 118.4 147.241 111.728 144H93V129H110.142C111.91 127.196 113 124.725 113 122C113 116.477 108.523 112 103 112C97.4772 112 93.0001 116.477 93 122H78C78.0001 108.193 89.1929 97 103 97C116.807 97 128 108.193 128 122Z"/>
        </mask>
        <path fill-rule="evenodd" clip-rule="evenodd" d="M128 122C128 126.554 126.782 130.824 124.655 134.501C132.782 140.911 138 150.846 138 162C138 181.33 122.33 197 103 197C83.67 197 68 181.33 68 162V162H83V162C83 173.046 91.9543 182 103 182C114.046 182 123 173.046 123 162C123 154.083 118.4 147.241 111.728 144H93V129H110.142C111.91 127.196 113 124.725 113 122C113 116.477 108.523 112 103 112C97.4772 112 93.0001 116.477 93 122H78C78.0001 108.193 89.1929 97 103 97C116.807 97 128 108.193 128 122Z" fill="#E1E1E1"/>
        <path d="M124.655 134.501L123.789 134.001L123.355 134.75L124.035 135.287L124.655 134.501ZM68 162V161H67V162H68ZM83 162H84V161H83V162ZM111.728 144L112.165 143.1L111.958 143H111.728V144ZM93 144H92V145H93V144ZM93 129V128H92V129H93ZM110.142 129V130H110.562L110.856 129.7L110.142 129ZM93 122V123H94L94 122L93 122ZM78 122L77 122L77 123H78V122ZM125.52 135.002C127.734 131.177 129 126.735 129 122H127C127 126.374 125.831 130.471 123.789 134.001L125.52 135.002ZM139 162C139 150.527 133.632 140.307 125.274 133.716L124.035 135.287C131.933 141.514 137 151.165 137 162H139ZM103 198C122.882 198 139 181.882 139 162H137C137 180.778 121.778 196 103 196V198ZM67 162C67 181.882 83.1177 198 103 198V196C84.2223 196 69 180.778 69 162H67ZM67 162V162H69V162H67ZM83 161H68V163H83V161ZM84 162V162H82V162H84ZM103 181C92.5066 181 84 172.493 84 162H82C82 173.598 91.402 183 103 183V181ZM122 162C122 172.493 113.493 181 103 181V183C114.598 183 124 173.598 124 162H122ZM111.291 144.899C117.632 147.98 122 154.481 122 162H124C124 153.686 119.169 146.503 112.165 143.1L111.291 144.899ZM111.728 143H93V145H111.728V143ZM94 144V129H92V144H94ZM93 130H110.142V128H93V130ZM112 122C112 124.453 111.02 126.675 109.427 128.3L110.856 129.7C112.8 127.717 114 124.998 114 122H112ZM103 113C107.971 113 112 117.029 112 122H114C114 115.925 109.075 111 103 111V113ZM94 122C94.0001 117.029 98.0295 113 103 113V111C96.9249 111 92.0001 115.925 92 122L94 122ZM78 123H93V121H78V123ZM103 96C88.6406 96 77.0001 107.641 77 122L79 122C79.0001 108.745 89.7452 98 103 98V96ZM129 122C129 107.641 117.359 96 103 96V98C116.255 98 127 108.745 127 122H129Z" fill="#141414" mask="url(#path-6-inside-1_165_1060)"/>
        <path fill-rule="evenodd" clip-rule="evenodd" d="M36.426 23.9275C36.426 25.5538 35.9911 27.0785 35.2314 28.3917C38.1338 30.6805 39.997 34.2284 39.997 38.2115C39.997 45.1142 34.4012 50.71 27.4985 50.71C20.5958 50.71 15 45.1142 15 38.2115V38.2115H20.3565V38.2115C20.3565 42.1559 23.5541 45.3535 27.4985 45.3535C31.4429 45.3535 34.6405 42.1559 34.6405 38.2115C34.6405 35.3845 32.998 32.9412 30.6152 31.7837H23.9275V26.4272H30.0487C30.6801 25.783 31.0695 24.9007 31.0695 23.9275C31.0695 21.9553 29.4707 20.3565 27.4985 20.3565C25.5263 20.3565 23.9275 21.9553 23.9275 23.9275H18.571C18.571 18.997 22.568 15 27.4985 15C32.429 15 36.426 18.997 36.426 23.9275Z" fill="#E1E1E1"/>
        <path fill-rule="evenodd" clip-rule="evenodd" d="M163.574 275.782C163.574 274.156 164.009 272.631 164.769 271.318C161.866 269.03 160.003 265.482 160.003 261.498C160.003 254.596 165.599 249 172.502 249C179.404 249 185 254.596 185 261.498L185 261.499L179.644 261.499L179.644 261.498C179.644 257.554 176.446 254.356 172.502 254.356C168.557 254.356 165.36 257.554 165.36 261.498C165.36 264.325 167.002 266.769 169.385 267.926L176.073 267.926L176.073 273.283L169.951 273.283C169.32 273.927 168.931 274.809 168.931 275.782C168.931 277.755 170.529 279.353 172.502 279.353C174.474 279.353 176.072 277.755 176.073 275.783L181.429 275.783C181.429 280.713 177.432 284.71 172.502 284.71C167.571 284.71 163.574 280.713 163.574 275.782Z" fill="#E1E1E1"/>
    </g>
</svg>
