<svg width="200" height="300" viewBox="0 0 200 300" fill="none" xmlns="http://www.w3.org/2000/svg">
    <rect width="200" height="300" rx="20" fill="#E1E1E1"/>
    <mask id="mask0_165_1158" style="mask-type:alpha" maskUnits="userSpaceOnUse" x="10" y="10" width="180" height="280">
        <rect x="10" y="10" width="180" height="280" rx="10" fill="#141414"/>
    </mask>
    <g mask="url(#mask0_165_1158)">
        <rect x="10" y="10" width="180" height="280" rx="10" fill="#C9271D"/>
        <path fill-rule="evenodd" clip-rule="evenodd" d="M160.754 194.038C201.036 137.973 206.42 72.9303 172.781 48.7615C139.142 24.5927 79.2171 50.45 38.9358 106.515C-1.34551 162.581 -6.72998 227.623 26.9092 251.792C60.5485 275.961 120.473 250.104 160.754 194.038ZM156.694 191.121C195.364 137.298 201.26 75.3796 169.863 52.8221C138.467 30.2645 81.6665 55.61 42.9964 109.433C4.32636 163.256 -1.56994 225.174 29.8267 247.732C61.2233 270.289 118.024 244.944 156.694 191.121Z" fill="#E1E1E1"/>
        <path fill-rule="evenodd" clip-rule="evenodd" d="M102.415 102L62 172H62.0111V187H107.011V202H122.011V187H132.011V172H122.011V132H107.011V172H79.3205L119.735 102H102.415Z" fill="#141414"/>
        <mask id="path-6-inside-1_165_1158" fill="white">
            <path fill-rule="evenodd" clip-rule="evenodd" d="M107.415 97L67 167H67.0111V182H112.011V197H127.011V182H137.011V167H127.011V127H112.011V167H84.3205L124.735 97H107.415Z"/>
        </mask>
        <path fill-rule="evenodd" clip-rule="evenodd" d="M107.415 97L67 167H67.0111V182H112.011V197H127.011V182H137.011V167H127.011V127H112.011V167H84.3205L124.735 97H107.415Z" fill="#E1E1E1"/>
        <path d="M67 167L66.134 166.5L65.2679 168H67V167ZM107.415 97V96H106.837L106.548 96.5L107.415 97ZM67.0111 167H68.0111V166H67.0111V167ZM67.0111 182H66.0111V183H67.0111V182ZM112.011 182H113.011V181H112.011V182ZM112.011 197H111.011V198H112.011V197ZM127.011 197V198H128.011V197H127.011ZM127.011 182V181H126.011V182H127.011ZM137.011 182V183H138.011V182H137.011ZM137.011 167H138.011V166H137.011V167ZM127.011 167H126.011V168H127.011V167ZM127.011 127H128.011V126H127.011V127ZM112.011 127V126H111.011V127H112.011ZM112.011 167V168H113.011V167H112.011ZM84.3205 167L83.4545 166.5L82.5885 168H84.3205V167ZM124.735 97L125.601 97.5L126.467 96H124.735V97ZM67.866 167.5L108.281 97.5L106.548 96.5L66.134 166.5L67.866 167.5ZM67.0111 166H67V168H67.0111V166ZM66.0111 167V182H68.0111V167H66.0111ZM67.0111 183H112.011V181H67.0111V183ZM111.011 182V197H113.011V182H111.011ZM112.011 198H127.011V196H112.011V198ZM128.011 197V182H126.011V197H128.011ZM127.011 183H137.011V181H127.011V183ZM138.011 182V167H136.011V182H138.011ZM137.011 166H127.011V168H137.011V166ZM128.011 167V127H126.011V167H128.011ZM127.011 126H112.011V128H127.011V126ZM111.011 127V167H113.011V127H111.011ZM112.011 166H84.3205V168H112.011V166ZM123.869 96.5L83.4545 166.5L85.1865 167.5L125.601 97.5L123.869 96.5ZM107.415 98H124.735V96H107.415V98Z" fill="#141414" mask="url(#path-6-inside-1_165_1158)"/>
        <path fill-rule="evenodd" clip-rule="evenodd" d="M29.432 15L15 39.997H15.0039V45.3535H31.0734V50.71H36.4299V45.3535H40.0009V39.997H36.4299V25.713H31.0734V39.997H21.1852L35.6172 15H29.432Z" fill="#E1E1E1"/>
        <path fill-rule="evenodd" clip-rule="evenodd" d="M170.569 284.71L185.001 259.713L184.997 259.713L184.997 254.356L168.928 254.356L168.928 249L163.571 249L163.571 254.356L160 254.356L160 259.713L163.571 259.713L163.571 273.997L168.928 273.997L168.928 259.713L178.816 259.713L164.384 284.71L170.569 284.71Z" fill="#E1E1E1"/>
    </g>
</svg>
