<svg width="200" height="300" viewBox="0 0 200 300" fill="none" xmlns="http://www.w3.org/2000/svg">
    <rect width="200" height="300" rx="20" fill="#E1E1E1"/>
    <mask id="mask0_165_1239" style="mask-type:alpha" maskUnits="userSpaceOnUse" x="10" y="10" width="180" height="280">
        <rect x="10" y="10" width="180" height="280" rx="10" fill="#141414"/>
    </mask>
    <g mask="url(#mask0_165_1239)">
        <rect x="10" y="10" width="180" height="280" rx="10" fill="#C9271D"/>
        <path fill-rule="evenodd" clip-rule="evenodd" d="M160.754 194.038C201.036 137.973 206.42 72.9303 172.781 48.7615C139.142 24.5927 79.2171 50.45 38.9358 106.515C-1.34554 162.581 -6.73001 227.623 26.9092 251.792C60.5485 275.961 120.473 250.104 160.754 194.038ZM156.694 191.121C195.364 137.298 201.26 75.3796 169.863 52.8221C138.467 30.2645 81.6665 55.61 42.9964 109.433C4.32633 163.256 -1.56997 225.174 29.8267 247.732C61.2233 270.289 118.024 244.944 156.694 191.121Z" fill="#E1E1E1"/>
        <path fill-rule="evenodd" clip-rule="evenodd" d="M77 102H62V147H77H97C100.956 147 104.822 148.173 108.111 150.371C111.4 152.568 113.964 155.692 115.478 159.346C116.991 163.001 117.387 167.022 116.616 170.902C115.844 174.781 113.939 178.345 111.142 181.142C108.345 183.939 104.781 185.844 100.902 186.616C97.0222 187.387 93.0009 186.991 89.3463 185.478C85.6918 183.964 82.5682 181.4 80.3706 178.111C78.173 174.822 77 170.956 77 167H62C62 173.922 64.0527 180.689 67.8986 186.445C71.7444 192.201 77.2107 196.687 83.6061 199.336C90.0015 201.985 97.0388 202.678 103.828 201.327C110.617 199.977 116.854 196.644 121.749 191.749C126.644 186.854 129.977 180.617 131.327 173.828C132.678 167.039 131.985 160.001 129.336 153.606C126.687 147.211 122.201 141.744 116.445 137.899C110.799 134.126 104.18 132.079 97.3957 132.002L97.3934 132H97H77V117H132V102H77Z" fill="#141414"/>
        <mask id="path-6-inside-1_165_1239" fill="white">
            <path fill-rule="evenodd" clip-rule="evenodd" d="M82 97H67V142H82H102C105.956 142 109.822 143.173 113.111 145.371C116.4 147.568 118.964 150.692 120.478 154.346C121.991 158.001 122.387 162.022 121.616 165.902C120.844 169.781 118.939 173.345 116.142 176.142C113.345 178.939 109.781 180.844 105.902 181.616C102.022 182.387 98.0009 181.991 94.3463 180.478C90.6918 178.964 87.5682 176.4 85.3706 173.111C83.173 169.822 82 165.956 82 162H67C67 168.922 69.0527 175.689 72.8986 181.445C76.7444 187.201 82.2107 191.687 88.6061 194.336C95.0015 196.985 102.039 197.678 108.828 196.327C115.617 194.977 121.854 191.644 126.749 186.749C131.644 181.854 134.977 175.617 136.327 168.828C137.678 162.039 136.985 155.001 134.336 148.606C131.687 142.211 127.201 136.744 121.445 132.899C115.799 129.126 109.18 127.079 102.396 127.002L102.393 127H102H82V112H137V97H82Z"/>
        </mask>
        <path fill-rule="evenodd" clip-rule="evenodd" d="M82 97H67V142H82H102C105.956 142 109.822 143.173 113.111 145.371C116.4 147.568 118.964 150.692 120.478 154.346C121.991 158.001 122.387 162.022 121.616 165.902C120.844 169.781 118.939 173.345 116.142 176.142C113.345 178.939 109.781 180.844 105.902 181.616C102.022 182.387 98.0009 181.991 94.3463 180.478C90.6918 178.964 87.5682 176.4 85.3706 173.111C83.173 169.822 82 165.956 82 162H67C67 168.922 69.0527 175.689 72.8986 181.445C76.7444 187.201 82.2107 191.687 88.6061 194.336C95.0015 196.985 102.039 197.678 108.828 196.327C115.617 194.977 121.854 191.644 126.749 186.749C131.644 181.854 134.977 175.617 136.327 168.828C137.678 162.039 136.985 155.001 134.336 148.606C131.687 142.211 127.201 136.744 121.445 132.899C115.799 129.126 109.18 127.079 102.396 127.002L102.393 127H102H82V112H137V97H82Z" fill="#E1E1E1"/>
        <path d="M67 97V96H66V97H67ZM67 142H66V143H67V142ZM113.111 145.371L113.667 144.539L113.667 144.539L113.111 145.371ZM120.478 154.346L121.401 153.964L121.401 153.964L120.478 154.346ZM121.616 165.902L122.596 166.097L122.596 166.097L121.616 165.902ZM105.902 181.616L106.097 182.596L106.097 182.596L105.902 181.616ZM94.3463 180.478L94.729 179.554L94.729 179.554L94.3463 180.478ZM82 162H83V161H82V162ZM67 162V161H66V162H67ZM72.8986 181.445L72.0671 182.001L72.0671 182.001L72.8986 181.445ZM88.6061 194.336L88.2234 195.26L88.2234 195.26L88.6061 194.336ZM108.828 196.327L108.633 195.347L108.633 195.347L108.828 196.327ZM126.749 186.749L126.042 186.042L126.042 186.042L126.749 186.749ZM136.327 168.828L135.347 168.633L135.347 168.633L136.327 168.828ZM134.336 148.606L135.26 148.223L135.26 148.223L134.336 148.606ZM121.445 132.899L122.001 132.067L122.001 132.067L121.445 132.899ZM102.396 127.002L101.689 127.709L101.977 127.998L102.384 128.002L102.396 127.002ZM102.393 127L103.101 126.293L102.808 126H102.393V127ZM82 127H81V128H82V127ZM82 112V111H81V112H82ZM137 112V113H138V112H137ZM137 97H138V96H137V97ZM67 98H82V96H67V98ZM68 142V97H66V142H68ZM82 141H67V143H82V141ZM102 141H82V143H102V141ZM102 143C105.758 143 109.431 144.114 112.556 146.202L113.667 144.539C110.214 142.232 106.153 141 102 141V143ZM112.556 146.202C115.68 148.29 118.116 151.257 119.554 154.729L121.401 153.964C119.812 150.126 117.12 146.847 113.667 144.539L112.556 146.202ZM119.554 154.729C120.992 158.201 121.368 162.021 120.635 165.707L122.596 166.097C123.407 162.023 122.991 157.801 121.401 153.964L119.554 154.729ZM120.635 165.707C119.902 169.392 118.092 172.778 115.435 175.435L116.849 176.849C119.786 173.912 121.786 170.17 122.596 166.097L120.635 165.707ZM115.435 175.435C112.778 178.092 109.392 179.902 105.707 180.635L106.097 182.596C110.17 181.786 113.912 179.786 116.849 176.849L115.435 175.435ZM105.707 180.635C102.021 181.368 98.2008 180.992 94.729 179.554L93.9636 181.401C97.8009 182.991 102.023 183.407 106.097 182.596L105.707 180.635ZM94.729 179.554C91.2572 178.116 88.2898 175.68 86.2021 172.556L84.5391 173.667C86.8466 177.12 90.1264 179.812 93.9636 181.401L94.729 179.554ZM86.2021 172.556C84.1143 169.431 83 165.758 83 162H81C81 166.153 82.2316 170.214 84.5391 173.667L86.2021 172.556ZM82 161H67V163H82V161ZM66 162C66 169.12 68.1114 176.08 72.0671 182.001L73.73 180.889C69.9941 175.298 68 168.725 68 162H66ZM72.0671 182.001C76.0228 187.921 81.6453 192.535 88.2234 195.26L88.9888 193.412C82.7761 190.839 77.466 186.481 73.73 180.889L72.0671 182.001ZM88.2234 195.26C94.8015 197.984 102.04 198.697 109.023 197.308L108.633 195.347C102.038 196.659 95.2015 195.985 88.9888 193.412L88.2234 195.26ZM109.023 197.308C116.007 195.919 122.421 192.491 127.456 187.456L126.042 186.042C121.287 190.797 115.228 194.035 108.633 195.347L109.023 197.308ZM127.456 187.456C132.491 182.421 135.919 176.007 137.308 169.023L135.347 168.633C134.035 175.228 130.797 181.287 126.042 186.042L127.456 187.456ZM137.308 169.023C138.697 162.04 137.984 154.802 135.26 148.223L133.412 148.989C135.985 155.201 136.659 162.038 135.347 168.633L137.308 169.023ZM135.26 148.223C132.535 141.645 127.921 136.023 122.001 132.067L120.889 133.73C126.481 137.466 130.839 142.776 133.412 148.989L135.26 148.223ZM122.001 132.067C116.193 128.187 109.385 126.081 102.407 126.002L102.384 128.002C108.975 128.077 115.405 130.065 120.889 133.73L122.001 132.067ZM101.686 127.707L101.689 127.709L103.103 126.295L103.101 126.293L101.686 127.707ZM102 128H102.393V126H102V128ZM82 128H102V126H82V128ZM81 112V127H83V112H81ZM137 111H82V113H137V111ZM136 97V112H138V97H136ZM82 98H137V96H82V98Z" fill="#141414" mask="url(#path-6-inside-1_165_1239)"/>
        <path fill-rule="evenodd" clip-rule="evenodd" d="M20.3565 15H15V31.0695H20.3565V15ZM39.997 15H20.3565V20.3565H39.997V15ZM27.4985 25.713H20.3565V31.0695H27.4985C28.9111 31.0695 30.2919 31.4884 31.4664 32.2731C32.6409 33.0579 33.5563 34.1733 34.0969 35.4784C34.6374 36.7834 34.7789 38.2194 34.5033 39.6048C34.2277 40.9902 33.5475 42.2628 32.5487 43.2617C31.5499 44.2605 30.2773 44.9407 28.8919 45.2163C27.5065 45.4918 26.0704 45.3504 24.7654 44.8098C23.4604 44.2693 22.345 43.3539 21.5602 42.1794C20.7754 41.0049 20.3565 39.624 20.3565 38.2115H15C15 40.6835 15.7331 43.0999 17.1064 45.1553C18.4798 47.2107 20.4318 48.8126 22.7156 49.7586C24.9994 50.7046 27.5124 50.9521 29.9369 50.4698C32.3613 49.9876 34.5884 48.7972 36.3363 47.0493C38.0843 45.3013 39.2746 43.0743 39.7569 40.6498C40.2391 38.2254 39.9916 35.7123 39.0456 33.4285C38.0997 31.1447 36.4977 29.1927 34.4423 27.8194C32.4261 26.4722 30.0625 25.7412 27.6398 25.7138L27.639 25.713H27.4985Z" fill="#E1E1E1"/>
        <path fill-rule="evenodd" clip-rule="evenodd" d="M179.64 284.71L184.997 284.71L184.997 268.64L179.64 268.64L179.64 284.71ZM160 284.71L179.64 284.71L179.64 279.353L160 279.353L160 284.71ZM172.498 273.997L179.64 273.997L179.64 268.64L172.498 268.64C171.086 268.64 169.705 268.222 168.531 267.437C167.356 266.652 166.441 265.537 165.9 264.232C165.36 262.927 165.218 261.491 165.494 260.105C165.769 258.72 166.449 257.447 167.448 256.448C168.447 255.449 169.72 254.769 171.105 254.494C172.49 254.218 173.927 254.36 175.232 254.9C176.537 255.441 177.652 256.356 178.437 257.531C179.222 258.705 179.64 260.086 179.64 261.498L184.997 261.498C184.997 259.026 184.264 256.61 182.891 254.555C181.517 252.499 179.565 250.897 177.281 249.951C174.998 249.005 172.485 248.758 170.06 249.24C167.636 249.722 165.409 250.913 163.661 252.661C161.913 254.409 160.722 256.636 160.24 259.06C159.758 261.485 160.005 263.998 160.951 266.281C161.897 268.565 163.499 270.517 165.555 271.891C167.571 273.238 169.934 273.969 172.357 273.996L172.358 273.997L172.498 273.997Z" fill="#E1E1E1"/>
    </g>
</svg>
