<svg width="200" height="300" viewBox="0 0 200 300" fill="none" xmlns="http://www.w3.org/2000/svg">
    <rect width="200" height="300" rx="20" fill="#E1E1E1"/>
    <mask id="mask0_165_1316" style="mask-type:alpha" maskUnits="userSpaceOnUse" x="10" y="10" width="180" height="280">
        <rect x="10" y="10" width="180" height="280" rx="10" fill="#141414"/>
    </mask>
    <g mask="url(#mask0_165_1316)">
        <rect x="10" y="10" width="180" height="280" rx="10" fill="#C9271D"/>
        <path fill-rule="evenodd" clip-rule="evenodd" d="M160.754 194.038C201.036 137.973 206.42 72.9303 172.781 48.7615C139.142 24.5927 79.2171 50.45 38.9358 106.515C-1.34554 162.581 -6.73001 227.623 26.9092 251.792C60.5485 275.961 120.473 250.104 160.754 194.038ZM156.694 191.121C195.364 137.298 201.26 75.3796 169.863 52.8221C138.467 30.2645 81.6665 55.61 42.9964 109.433C4.32633 163.256 -1.56997 225.174 29.8267 247.732C61.2233 270.289 118.024 244.944 156.694 191.121Z" fill="#E1E1E1"/>
        <path fill-rule="evenodd" clip-rule="evenodd" d="M63 132C63 124.295 65.5423 116.806 70.2326 110.693C74.923 104.581 81.4992 100.187 88.9413 98.1926C96.3835 96.1985 104.276 96.7158 111.394 99.6642C118.512 102.613 124.459 107.828 128.311 114.5L115.321 122C113.119 118.187 109.721 115.207 105.654 113.522C101.586 111.838 97.0763 111.542 92.8236 112.681C88.571 113.821 84.8131 116.332 82.1329 119.825C79.4527 123.318 78 127.597 78 132V133.273C78.6388 132.828 79.2931 132.403 79.962 132C85.2298 128.826 91.4017 127 98 127C117.33 127 133 142.67 133 162C133 181.33 117.33 197 98 197C78.67 197 63 181.33 63 162V132ZM98 182C86.9543 182 78 173.046 78 162C78 150.954 86.9543 142 98 142C109.046 142 118 150.954 118 162C118 173.046 109.046 182 98 182ZM113 207V202H83V207H113Z" fill="#141414"/>
        <mask id="path-6-inside-1_165_1316" fill="white">
            <path fill-rule="evenodd" clip-rule="evenodd" d="M68 127C68 119.295 70.5423 111.806 75.2326 105.693C79.923 99.5808 86.4992 95.1867 93.9413 93.1926C101.383 91.1985 109.276 91.7158 116.394 94.6642C123.512 97.6127 129.459 102.828 133.311 109.5L120.321 117C118.119 113.187 114.721 110.207 110.654 108.522C106.586 106.838 102.076 106.542 97.8236 107.681C93.571 108.821 89.8131 111.332 87.1329 114.825C84.4527 118.318 83 122.597 83 127V128.273C83.6388 127.828 84.2931 127.403 84.962 127C90.2298 123.826 96.4017 122 103 122C122.33 122 138 137.67 138 157C138 176.33 122.33 192 103 192C83.67 192 68 176.33 68 157V127ZM103 177C91.9543 177 83 168.046 83 157C83 145.954 91.9543 137 103 137C114.046 137 123 145.954 123 157C123 168.046 114.046 177 103 177ZM118 202V197H88V202H118Z"/>
        </mask>
        <path fill-rule="evenodd" clip-rule="evenodd" d="M68 127C68 119.295 70.5423 111.806 75.2326 105.693C79.923 99.5808 86.4992 95.1867 93.9413 93.1926C101.383 91.1985 109.276 91.7158 116.394 94.6642C123.512 97.6127 129.459 102.828 133.311 109.5L120.321 117C118.119 113.187 114.721 110.207 110.654 108.522C106.586 106.838 102.076 106.542 97.8236 107.681C93.571 108.821 89.8131 111.332 87.1329 114.825C84.4527 118.318 83 122.597 83 127V128.273C83.6388 127.828 84.2931 127.403 84.962 127C90.2298 123.826 96.4017 122 103 122C122.33 122 138 137.67 138 157C138 176.33 122.33 192 103 192C83.67 192 68 176.33 68 157V127ZM103 177C91.9543 177 83 168.046 83 157C83 145.954 91.9543 137 103 137C114.046 137 123 145.954 123 157C123 168.046 114.046 177 103 177ZM118 202V197H88V202H118Z" fill="#E1E1E1"/>
        <path d="M75.2326 105.693L76.026 106.302L76.026 106.302L75.2326 105.693ZM93.9413 93.1926L93.6825 92.2267L93.6825 92.2267L93.9413 93.1926ZM116.394 94.6642L116.777 93.7403L116.777 93.7403L116.394 94.6642ZM133.311 109.5L133.811 110.366L134.677 109.866L134.177 109L133.311 109.5ZM120.321 117L119.454 117.5L119.954 118.366L120.821 117.866L120.321 117ZM110.654 108.522L111.036 107.599L111.036 107.599L110.654 108.522ZM97.8236 107.681L98.0824 108.647L98.0824 108.647L97.8236 107.681ZM87.1329 114.825L86.3396 114.216L86.3396 114.216L87.1329 114.825ZM83 128.273H82V130.19L83.5721 129.094L83 128.273ZM84.962 127L84.4459 126.143L84.4459 126.143L84.962 127ZM118 197H119V196H118V197ZM118 202V203H119V202H118ZM88 197V196H87V197H88ZM88 202H87V203H88V202ZM74.4393 105.085C69.6149 111.372 67 119.075 67 127H69C69 119.515 71.4697 112.24 76.026 106.302L74.4393 105.085ZM93.6825 92.2267C86.0277 94.2778 79.2636 98.7974 74.4393 105.085L76.026 106.302C80.5823 100.364 86.9706 96.0957 94.2002 94.1585L93.6825 92.2267ZM116.777 93.7403C109.455 90.7076 101.337 90.1756 93.6825 92.2267L94.2002 94.1585C101.43 92.2214 109.096 92.7239 116.011 95.5881L116.777 93.7403ZM134.177 109C130.214 102.137 124.098 96.773 116.777 93.7403L116.011 95.5881C122.926 98.4523 128.703 103.518 132.445 110L134.177 109ZM120.821 117.866L133.811 110.366L132.811 108.634L119.821 116.134L120.821 117.866ZM110.271 109.446C114.135 111.047 117.363 113.878 119.454 117.5L121.187 116.5C118.875 112.497 115.307 109.368 111.036 107.599L110.271 109.446ZM98.0824 108.647C102.122 107.565 106.407 107.846 110.271 109.446L111.036 107.599C106.765 105.829 102.03 105.519 97.5648 106.716L98.0824 108.647ZM87.9263 115.434C90.4725 112.115 94.0424 109.73 98.0824 108.647L97.5648 106.716C93.0995 107.912 89.1538 110.548 86.3396 114.216L87.9263 115.434ZM84 127C84 122.817 85.3801 118.752 87.9263 115.434L86.3396 114.216C83.5254 117.884 82 122.377 82 127H84ZM84 128.273V127H82V128.273H84ZM84.4459 126.143C83.7579 126.558 83.0849 126.995 82.4279 127.453L83.5721 129.094C84.1927 128.661 84.8283 128.248 85.4782 127.857L84.4459 126.143ZM103 121C96.2147 121 89.8651 122.878 84.4459 126.143L85.4782 127.857C90.5945 124.774 96.5886 123 103 123V121ZM139 157C139 137.118 122.882 121 103 121V123C121.778 123 137 138.222 137 157H139ZM103 193C122.882 193 139 176.882 139 157H137C137 175.778 121.778 191 103 191V193ZM67 157C67 176.882 83.1177 193 103 193V191C84.2223 191 69 175.778 69 157H67ZM67 127V157H69V127H67ZM82 157C82 168.598 91.402 178 103 178V176C92.5066 176 84 167.493 84 157H82ZM103 136C91.402 136 82 145.402 82 157H84C84 146.507 92.5066 138 103 138V136ZM124 157C124 145.402 114.598 136 103 136V138C113.493 138 122 146.507 122 157H124ZM103 178C114.598 178 124 168.598 124 157H122C122 167.493 113.493 176 103 176V178ZM117 197V202H119V197H117ZM88 198H118V196H88V198ZM89 202V197H87V202H89ZM118 201H88V203H118V201Z" fill="#141414" mask="url(#path-6-inside-1_165_1316)"/>
        <path fill-rule="evenodd" clip-rule="evenodd" d="M15 27.5C15 24.7483 15.908 22.0735 17.5831 19.8905C19.2582 17.7074 21.6068 16.1381 24.2648 15.4259C26.9227 14.7137 29.7413 14.8985 32.2835 15.9515C34.8258 17.0045 36.9495 18.867 38.3253 21.25L33.6859 23.9286C32.8997 22.5668 31.6861 21.5026 30.2335 20.9009C28.7808 20.2991 27.1701 20.1936 25.6513 20.6005C24.1325 21.0075 22.7904 21.9042 21.8332 23.1517C20.876 24.3992 20.3571 25.9276 20.3571 27.5L21.0579 27.5H15ZM21.0579 27.5C22.9392 26.3664 25.1435 25.7143 27.5 25.7143C34.4036 25.7143 40 31.3107 40 38.2143C40 45.1179 34.4036 50.7143 27.5 50.7143C20.5964 50.7143 15 45.1179 15 38.2143V27.5H20.3571V27.9548C20.5853 27.7957 20.819 27.644 21.0579 27.5ZM27.5 45.3572C23.5551 45.3572 20.3571 42.1592 20.3571 38.2143C20.3571 34.2694 23.5551 31.0714 27.5 31.0714C31.4449 31.0714 34.6429 34.2694 34.6429 38.2143C34.6429 42.1592 31.4449 45.3572 27.5 45.3572Z" fill="#E1E1E1"/>
        <path fill-rule="evenodd" clip-rule="evenodd" d="M185 272.214C185 274.966 184.092 277.641 182.417 279.824C180.742 282.007 178.393 283.576 175.735 284.288C173.077 285.001 170.259 284.816 167.716 283.763C165.174 282.71 163.051 280.847 161.675 278.464L166.314 275.786C167.1 277.147 168.314 278.212 169.767 278.813C171.219 279.415 172.83 279.521 174.349 279.114C175.868 278.707 177.21 277.81 178.167 276.563C179.124 275.315 179.643 273.787 179.643 272.214L178.942 272.214L185 272.214ZM178.942 272.214C177.061 273.348 174.857 274 172.5 274C165.596 274 160 268.404 160 261.5C160 254.596 165.596 249 172.5 249C179.404 249 185 254.596 185 261.5L185 272.214L179.643 272.214L179.643 271.759C179.415 271.919 179.181 272.07 178.942 272.214ZM172.5 254.357C176.445 254.357 179.643 257.555 179.643 261.5C179.643 265.445 176.445 268.643 172.5 268.643C168.555 268.643 165.357 265.445 165.357 261.5C165.357 257.555 168.555 254.357 172.5 254.357Z" fill="#E1E1E1"/>
    </g>
</svg>
