<svg width="200" height="300" viewBox="0 0 200 300" fill="none" xmlns="http://www.w3.org/2000/svg">
    <rect width="200" height="300" rx="20" fill="#E1E1E1"/>
    <mask id="mask0_165_1399" style="mask-type:alpha" maskUnits="userSpaceOnUse" x="10" y="10" width="180" height="280">
        <rect x="10" y="10" width="180" height="280" rx="10" fill="#141414"/>
    </mask>
    <g mask="url(#mask0_165_1399)">
        <rect x="10" y="10" width="180" height="280" rx="10" fill="#C9271D"/>
        <path fill-rule="evenodd" clip-rule="evenodd" d="M160.754 194.038C201.036 137.973 206.42 72.9303 172.781 48.7615C139.142 24.5927 79.2171 50.45 38.9358 106.515C-1.34554 162.581 -6.73001 227.623 26.9092 251.792C60.5485 275.961 120.473 250.104 160.754 194.038ZM156.694 191.121C195.364 137.298 201.26 75.3796 169.863 52.8221C138.467 30.2645 81.6665 55.61 42.9964 109.433C4.32633 163.256 -1.56996 225.174 29.8267 247.732C61.2233 270.289 118.024 244.944 156.694 191.121Z" fill="#E1E1E1"/>
        <path fill-rule="evenodd" clip-rule="evenodd" d="M62 102H132V117L132 117.249L98.241 202H82.0947L115.953 117H77V132H62V117V102Z" fill="#141414"/>
        <mask id="path-6-inside-1_165_1399" fill="white">
            <path fill-rule="evenodd" clip-rule="evenodd" d="M67 97H137V112L137 112.249L103.241 197H87.0947L120.953 112H82V127H67V112V97Z"/>
        </mask>
        <path fill-rule="evenodd" clip-rule="evenodd" d="M67 97H137V112L137 112.249L103.241 197H87.0947L120.953 112H82V127H67V112V97Z" fill="#E1E1E1"/>
        <path d="M137 97H138V96H137V97ZM67 97V96H66V97H67ZM137 112L136 112L136 112L137 112ZM137 112.249L137.929 112.619L138 112.441L138 112.249L137 112.249ZM103.241 197V198H103.919L104.17 197.37L103.241 197ZM87.0947 197L86.1657 196.63L85.62 198H87.0947V197ZM120.953 112L121.882 112.37L122.428 111H120.953V112ZM82 112V111H81V112H82ZM82 127V128H83V127H82ZM67 127H66V128H67V127ZM137 96H67V98H137V96ZM138 112V97H136V112H138ZM138 112.249L138 112L136 112L136 112.249L138 112.249ZM104.17 197.37L137.929 112.619L136.071 111.879L102.312 196.63L104.17 197.37ZM87.0947 198H103.241V196H87.0947V198ZM120.024 111.63L86.1657 196.63L88.0237 197.37L121.882 112.37L120.024 111.63ZM82 113H120.953V111H82V113ZM83 127V112H81V127H83ZM67 128H82V126H67V128ZM66 112V127H68V112H66ZM66 97V112H68V97H66Z" fill="#141414" mask="url(#path-6-inside-1_165_1399)"/>
        <path fill-rule="evenodd" clip-rule="evenodd" d="M15 15H39.997V20.3565H15V15ZM20.3565 20.3565V25.713H15V20.3565H20.3565ZM22.1758 50.71L34.2666 20.3565H39.997V20.4455L27.9416 50.71H22.1758Z" fill="#E1E1E1"/>
        <path fill-rule="evenodd" clip-rule="evenodd" d="M184.997 284.71L160 284.71L160 279.353L184.997 279.353L184.997 284.71ZM179.64 279.353L179.64 273.997L184.997 273.997L184.997 279.353L179.64 279.353ZM177.821 249L165.73 279.353L160 279.353L160 279.264L172.055 249L177.821 249Z" fill="#E1E1E1"/>
    </g>
</svg>
