<svg width="200" height="300" viewBox="0 0 200 300" fill="none" xmlns="http://www.w3.org/2000/svg">
    <rect width="200" height="300" rx="20" fill="#E1E1E1"/>
    <mask id="mask0_165_1482" style="mask-type:alpha" maskUnits="userSpaceOnUse" x="10" y="10" width="180" height="280">
        <rect x="10" y="10" width="180" height="280" rx="10" fill="#141414"/>
    </mask>
    <g mask="url(#mask0_165_1482)">
        <rect x="10" y="10" width="180" height="280" rx="10" fill="#C9271D"/>
        <path fill-rule="evenodd" clip-rule="evenodd" d="M160.754 194.038C201.036 137.973 206.42 72.9303 172.781 48.7615C139.142 24.5927 79.2171 50.45 38.9358 106.515C-1.34554 162.581 -6.73001 227.623 26.9092 251.792C60.5485 275.961 120.473 250.104 160.754 194.038ZM156.694 191.121C195.364 137.298 201.26 75.3796 169.863 52.8221C138.467 30.2645 81.6665 55.61 42.9964 109.433C4.32633 163.256 -1.56997 225.174 29.8267 247.732C61.2233 270.289 118.024 244.944 156.694 191.121Z" fill="#E1E1E1"/>
        <path fill-rule="evenodd" clip-rule="evenodd" d="M122 127C122 131.554 120.782 135.824 118.655 139.501C126.782 145.911 132 155.846 132 167C132 186.33 116.33 202 97 202C77.67 202 62 186.33 62 167C62 155.846 67.2176 145.911 75.3453 139.501C73.2177 135.824 72 131.554 72 127C72 113.193 83.1929 102 97 102C110.807 102 122 113.193 122 127ZM107 127C107 132.523 102.523 137 97 137C91.4772 137 87 132.523 87 127C87 121.477 91.4772 117 97 117C102.523 117 107 121.477 107 127ZM117 167C117 178.046 108.046 187 97 187C85.9543 187 77 178.046 77 167C77 155.954 85.9543 147 97 147C108.046 147 117 155.954 117 167Z" fill="#141414"/>
        <mask id="path-6-inside-1_165_1482" fill="white">
            <path fill-rule="evenodd" clip-rule="evenodd" d="M127 122C127 126.554 125.782 130.824 123.655 134.501C131.782 140.911 137 150.846 137 162C137 181.33 121.33 197 102 197C82.67 197 67 181.33 67 162C67 150.846 72.2176 140.911 80.3453 134.501C78.2177 130.824 77 126.554 77 122C77 108.193 88.1929 97 102 97C115.807 97 127 108.193 127 122ZM112 122C112 127.523 107.523 132 102 132C96.4772 132 92 127.523 92 122C92 116.477 96.4772 112 102 112C107.523 112 112 116.477 112 122ZM122 162C122 173.046 113.046 182 102 182C90.9543 182 82 173.046 82 162C82 150.954 90.9543 142 102 142C113.046 142 122 150.954 122 162Z"/>
        </mask>
        <path fill-rule="evenodd" clip-rule="evenodd" d="M127 122C127 126.554 125.782 130.824 123.655 134.501C131.782 140.911 137 150.846 137 162C137 181.33 121.33 197 102 197C82.67 197 67 181.33 67 162C67 150.846 72.2176 140.911 80.3453 134.501C78.2177 130.824 77 126.554 77 122C77 108.193 88.1929 97 102 97C115.807 97 127 108.193 127 122ZM112 122C112 127.523 107.523 132 102 132C96.4772 132 92 127.523 92 122C92 116.477 96.4772 112 102 112C107.523 112 112 116.477 112 122ZM122 162C122 173.046 113.046 182 102 182C90.9543 182 82 173.046 82 162C82 150.954 90.9543 142 102 142C113.046 142 122 150.954 122 162Z" fill="#E1E1E1"/>
        <path d="M123.655 134.501L122.789 134.001L122.355 134.75L123.035 135.287L123.655 134.501ZM80.3453 134.501L80.9645 135.287L81.6446 134.75L81.2109 134.001L80.3453 134.501ZM124.52 135.002C126.734 131.177 128 126.735 128 122H126C126 126.374 124.831 130.471 122.789 134.001L124.52 135.002ZM138 162C138 150.527 132.632 140.307 124.274 133.716L123.035 135.287C130.933 141.514 136 151.165 136 162H138ZM102 198C121.882 198 138 181.882 138 162H136C136 180.778 120.778 196 102 196V198ZM66 162C66 181.882 82.1177 198 102 198V196C83.2223 196 68 180.778 68 162H66ZM79.7261 133.716C71.3683 140.307 66 150.527 66 162H68C68 151.165 73.0669 141.514 80.9645 135.287L79.7261 133.716ZM76 122C76 126.735 77.2665 131.177 79.4797 135.002L81.2109 134.001C79.169 130.471 78 126.374 78 122H76ZM102 96C87.6406 96 76 107.641 76 122H78C78 108.745 88.7452 98 102 98V96ZM128 122C128 107.641 116.359 96 102 96V98C115.255 98 126 108.745 126 122H128ZM102 133C108.075 133 113 128.075 113 122H111C111 126.971 106.971 131 102 131V133ZM91 122C91 128.075 95.9249 133 102 133V131C97.0294 131 93 126.971 93 122H91ZM102 111C95.9249 111 91 115.925 91 122H93C93 117.029 97.0294 113 102 113V111ZM113 122C113 115.925 108.075 111 102 111V113C106.971 113 111 117.029 111 122H113ZM102 183C113.598 183 123 173.598 123 162H121C121 172.493 112.493 181 102 181V183ZM81 162C81 173.598 90.402 183 102 183V181C91.5066 181 83 172.493 83 162H81ZM102 141C90.402 141 81 150.402 81 162H83C83 151.507 91.5066 143 102 143V141ZM123 162C123 150.402 113.598 141 102 141V143C112.493 143 121 151.507 121 162H123Z" fill="#141414" mask="url(#path-6-inside-1_165_1482)"/>
        <path fill-rule="evenodd" clip-rule="evenodd" d="M36.426 23.9275C36.426 25.5538 35.9911 27.0785 35.2314 28.3917C38.1338 30.6805 39.997 34.2284 39.997 38.2115C39.997 45.1142 34.4012 50.71 27.4985 50.71C20.5958 50.71 15 45.1142 15 38.2115C15 34.2284 16.8632 30.6805 19.7656 28.3917C19.0058 27.0785 18.571 25.5538 18.571 23.9275C18.571 18.997 22.568 15 27.4985 15C32.429 15 36.426 18.997 36.426 23.9275ZM31.0695 23.9275C31.0695 25.8997 29.4707 27.4985 27.4985 27.4985C25.5263 27.4985 23.9275 25.8997 23.9275 23.9275C23.9275 21.9553 25.5263 20.3565 27.4985 20.3565C29.4707 20.3565 31.0695 21.9553 31.0695 23.9275ZM34.6405 38.2115C34.6405 42.1559 31.4429 45.3535 27.4985 45.3535C23.5541 45.3535 20.3565 42.1559 20.3565 38.2115C20.3565 34.2671 23.5541 31.0695 27.4985 31.0695C31.4429 31.0695 34.6405 34.2671 34.6405 38.2115Z" fill="#E1E1E1"/>
        <path fill-rule="evenodd" clip-rule="evenodd" d="M163.571 275.782C163.571 274.156 164.006 272.631 164.766 271.318C161.863 269.03 160 265.482 160 261.498C160 254.596 165.596 249 172.499 249C179.401 249 184.997 254.596 184.997 261.498C184.997 265.482 183.134 269.03 180.231 271.318C180.991 272.631 181.426 274.156 181.426 275.782C181.426 280.713 177.429 284.71 172.499 284.71C167.568 284.71 163.571 280.713 163.571 275.782ZM168.928 275.782C168.928 273.81 170.526 272.211 172.499 272.211C174.471 272.211 176.07 273.81 176.07 275.782C176.07 277.755 174.471 279.353 172.499 279.353C170.526 279.353 168.928 277.755 168.928 275.782ZM165.357 261.498C165.357 257.554 168.554 254.356 172.499 254.356C176.443 254.356 179.641 257.554 179.641 261.498C179.641 265.443 176.443 268.64 172.499 268.64C168.554 268.64 165.357 265.443 165.357 261.498Z" fill="#E1E1E1"/>
    </g>
</svg>
