<svg width="200" height="300" viewBox="0 0 200 300" fill="none" xmlns="http://www.w3.org/2000/svg">
    <rect width="200" height="300" rx="20" fill="#E1E1E1"/>
    <mask id="mask0_165_1707" style="mask-type:alpha" maskUnits="userSpaceOnUse" x="10" y="10" width="180" height="280">
        <rect x="10" y="10" width="180" height="280" rx="10" fill="#141414"/>
    </mask>
    <g mask="url(#mask0_165_1707)">
        <rect x="10" y="10" width="180" height="280" rx="10" fill="#C9271D"/>
        <path fill-rule="evenodd" clip-rule="evenodd" d="M160.754 194.038C201.036 137.973 206.42 72.9303 172.781 48.7615C139.142 24.5927 79.2171 50.45 38.9358 106.515C-1.34554 162.581 -6.73001 227.623 26.9092 251.792C60.5485 275.961 120.473 250.104 160.754 194.038ZM156.694 191.121C195.364 137.298 201.26 75.3796 169.863 52.8221C138.467 30.2645 81.6665 55.61 42.9964 109.433C4.32633 163.256 -1.56997 225.174 29.8267 247.732C61.2233 270.289 118.024 244.944 156.694 191.121Z" fill="#E1E1E1"/>
        <path fill-rule="evenodd" clip-rule="evenodd" d="M63 132C63 112.67 78.67 97 98 97C117.33 97 133 112.67 133 132V162C133 169.705 130.458 177.194 125.767 183.307C121.077 189.419 114.501 193.813 107.059 195.807C99.6165 197.802 91.7243 197.284 84.6061 194.336C77.4879 191.387 71.5415 186.172 67.6891 179.5L80.6795 172C82.8808 175.813 86.2788 178.793 90.3463 180.478C94.4139 182.162 98.9237 182.458 103.176 181.319C107.429 180.179 111.187 177.668 113.867 174.175C116.547 170.682 118 166.403 118 162V160.727C117.361 161.172 116.707 161.597 116.038 162C110.77 165.174 104.598 167 98 167C78.67 167 63 151.33 63 132ZM98 112C109.046 112 118 120.954 118 132C118 143.046 109.046 152 98 152C86.9543 152 78 143.046 78 132C78 120.954 86.9543 112 98 112ZM113 207V202H83V207H113Z" fill="#141414"/>
        <mask id="path-6-inside-1_165_1707" fill="white">
            <path fill-rule="evenodd" clip-rule="evenodd" d="M68 127C68 107.67 83.67 92 103 92C122.33 92 138 107.67 138 127V157C138 164.705 135.458 172.194 130.767 178.307C126.077 184.419 119.501 188.813 112.059 190.807C104.616 192.802 96.7243 192.284 89.6061 189.336C82.4879 186.387 76.5415 181.172 72.6891 174.5L85.6795 167C87.8808 170.813 91.2788 173.793 95.3463 175.478C99.4139 177.162 103.924 177.458 108.176 176.319C112.429 175.179 116.187 172.668 118.867 169.175C121.547 165.682 123 161.403 123 157V155.727C122.361 156.172 121.707 156.597 121.038 157C115.77 160.174 109.598 162 103 162C83.67 162 68 146.33 68 127ZM103 107C114.046 107 123 115.954 123 127C123 138.046 114.046 147 103 147C91.9543 147 83 138.046 83 127C83 115.954 91.9543 107 103 107ZM118 202V197H88V202H118Z"/>
        </mask>
        <path fill-rule="evenodd" clip-rule="evenodd" d="M68 127C68 107.67 83.67 92 103 92C122.33 92 138 107.67 138 127V157C138 164.705 135.458 172.194 130.767 178.307C126.077 184.419 119.501 188.813 112.059 190.807C104.616 192.802 96.7243 192.284 89.6061 189.336C82.4879 186.387 76.5415 181.172 72.6891 174.5L85.6795 167C87.8808 170.813 91.2788 173.793 95.3463 175.478C99.4139 177.162 103.924 177.458 108.176 176.319C112.429 175.179 116.187 172.668 118.867 169.175C121.547 165.682 123 161.403 123 157V155.727C122.361 156.172 121.707 156.597 121.038 157C115.77 160.174 109.598 162 103 162C83.67 162 68 146.33 68 127ZM103 107C114.046 107 123 115.954 123 127C123 138.046 114.046 147 103 147C91.9543 147 83 138.046 83 127C83 115.954 91.9543 107 103 107ZM118 202V197H88V202H118Z" fill="#E1E1E1"/>
        <path d="M103 92L103 91H103L103 92ZM68 127L69 127V127L68 127ZM138 127L137 127V127H138ZM138 157L139 157V157H138ZM130.767 178.307L131.561 178.915L131.561 178.915L130.767 178.307ZM112.059 190.807L112.317 191.773L112.317 191.773L112.059 190.807ZM89.6061 189.336L89.2234 190.26L89.2234 190.26L89.6061 189.336ZM72.6891 174.5L72.1891 173.634L71.3231 174.134L71.8231 175L72.6891 174.5ZM85.6795 167L86.5455 166.5L86.0455 165.634L85.1795 166.134L85.6795 167ZM95.3463 175.478L94.9636 176.401L94.9636 176.401L95.3463 175.478ZM118.867 169.175L118.074 168.566L118.074 168.566L118.867 169.175ZM123 157L124 157V157H123ZM123 155.727H124V153.81L122.428 154.906L123 155.727ZM121.038 157L120.522 156.143L120.522 156.143L121.038 157ZM103 162L103 163H103V162ZM103 107L103 108L103 107ZM83 127L84 127L83 127ZM118 197H119V196H118V197ZM118 202V203H119V202H118ZM88 197V196H87V197H88ZM88 202H87V203H88V202ZM103 91C83.1178 91 67 107.118 67 127L69 127C69 108.222 84.2223 93 103 93L103 91ZM139 127C139 107.118 122.882 91 103 91L103 93C121.778 93 137 108.222 137 127L139 127ZM139 157V127H137V157H139ZM131.561 178.915C136.385 172.628 139 164.925 139 157L137 157C137 164.485 134.53 171.76 129.974 177.698L131.561 178.915ZM112.317 191.773C119.972 189.722 126.736 185.203 131.561 178.915L129.974 177.698C125.418 183.636 119.029 187.904 111.8 189.841L112.317 191.773ZM89.2234 190.26C96.545 193.292 104.663 193.824 112.317 191.773L111.8 189.841C104.57 191.779 96.9036 191.276 89.9888 188.412L89.2234 190.26ZM71.8231 175C75.7855 181.863 81.9018 187.227 89.2234 190.26L89.9888 188.412C83.0739 185.548 77.2974 180.482 73.5551 174L71.8231 175ZM85.1795 166.134L72.1891 173.634L73.1891 175.366L86.1795 167.866L85.1795 166.134ZM95.729 174.554C91.8648 172.953 88.6368 170.122 86.5455 166.5L84.8135 167.5C87.1249 171.503 90.6927 174.632 94.9636 176.401L95.729 174.554ZM107.918 175.353C103.878 176.435 99.5932 176.154 95.729 174.554L94.9636 176.401C99.2346 178.171 103.97 178.481 108.435 177.284L107.918 175.353ZM118.074 168.566C115.528 171.885 111.958 174.27 107.918 175.353L108.435 177.284C112.9 176.088 116.846 173.452 119.66 169.784L118.074 168.566ZM122 157C122 161.183 120.62 165.248 118.074 168.566L119.66 169.784C122.475 166.116 124 161.623 124 157L122 157ZM122 155.727V157H124V155.727H122ZM121.554 157.857C122.242 157.442 122.915 157.005 123.572 156.547L122.428 154.906C121.807 155.339 121.172 155.752 120.522 156.143L121.554 157.857ZM103 163C109.785 163 116.135 161.122 121.554 157.857L120.522 156.143C115.406 159.226 109.411 161 103 161V163ZM67 127C67 146.882 83.1177 163 103 163L103 161C84.2223 161 69 145.778 69 127L67 127ZM124 127C124 115.402 114.598 106 103 106L103 108C113.493 108 122 116.507 122 127H124ZM103 148C114.598 148 124 138.598 124 127H122C122 137.493 113.493 146 103 146V148ZM82 127C82 138.598 91.402 148 103 148V146C92.5066 146 84 137.493 84 127L82 127ZM103 106C91.402 106 82 115.402 82 127L84 127C84 116.507 92.5066 108 103 108L103 106ZM117 197V202H119V197H117ZM88 198H118V196H88V198ZM89 202V197H87V202H89ZM118 201H88V203H118V201Z" fill="#141414" mask="url(#path-6-inside-1_165_1707)"/>
        <path fill-rule="evenodd" clip-rule="evenodd" d="M160 261.21C160 258.458 160.908 255.784 162.583 253.601C164.258 251.417 166.607 249.848 169.265 249.136C171.923 248.424 174.741 248.609 177.284 249.662C179.826 250.715 181.949 252.577 183.325 254.96L178.686 257.639C177.9 256.277 176.686 255.213 175.233 254.611C173.781 254.009 172.17 253.904 170.651 254.311C169.132 254.718 167.79 255.614 166.833 256.862C165.876 258.109 165.357 259.638 165.357 261.21L166.058 261.21H160ZM166.058 261.21C167.939 260.076 170.143 259.424 172.5 259.424C179.404 259.424 185 265.021 185 271.924C185 278.828 179.404 284.424 172.5 284.424C165.596 284.424 160 278.828 160 271.924V261.21H165.357V261.665C165.585 261.506 165.819 261.354 166.058 261.21ZM172.5 279.067C168.555 279.067 165.357 275.869 165.357 271.924C165.357 267.979 168.555 264.781 172.5 264.781C176.445 264.781 179.643 267.979 179.643 271.924C179.643 275.869 176.445 279.067 172.5 279.067Z" fill="#E1E1E1"/>
        <path fill-rule="evenodd" clip-rule="evenodd" d="M40 38.2143C40 40.966 39.092 43.6408 37.4169 45.8238C35.7418 48.0069 33.3932 49.5762 30.7352 50.2884C28.0773 51.0005 25.2587 50.8158 22.7165 49.7628C20.1742 48.7098 18.0505 46.8473 16.6747 44.4643L21.3141 41.7857C22.1003 43.1474 23.3139 44.2117 24.7665 44.8134C26.2192 45.4152 27.8299 45.5207 29.3487 45.1138C30.8675 44.7068 32.2096 43.81 33.1668 42.5626C34.124 41.3151 34.6429 39.7867 34.6429 38.2143L33.9421 38.2143L40 38.2143ZM33.9421 38.2143C32.0608 39.3479 29.8565 40 27.5 40C20.5964 40 15 34.4036 15 27.5C15 20.5964 20.5964 15 27.5 15C34.4036 15 40 20.5964 40 27.5L40 38.2143L34.6429 38.2143L34.6429 37.7595C34.4147 37.9186 34.181 38.0703 33.9421 38.2143ZM27.5 20.3571C31.4449 20.3571 34.6429 23.5551 34.6429 27.5C34.6429 31.4449 31.4449 34.6429 27.5 34.6429C23.5551 34.6429 20.3571 31.4449 20.3571 27.5C20.3571 23.5551 23.5551 20.3571 27.5 20.3571Z" fill="#E1E1E1"/>
    </g>
</svg>
