<svg width="200" height="300" viewBox="0 0 200 300" fill="none" xmlns="http://www.w3.org/2000/svg">
    <rect width="200" height="300" rx="20" fill="#E1E1E1"/>
    <mask id="mask0_61_55" style="mask-type:alpha" maskUnits="userSpaceOnUse" x="10" y="10" width="180" height="280">
        <rect x="10" y="10" width="180" height="280" rx="10" fill="#141414"/>
    </mask>
    <g mask="url(#mask0_61_55)">
        <rect x="10" y="10" width="180" height="280" rx="10" fill="#141414"/>
        <ellipse cx="99.8489" cy="150.276" rx="75" ry="125" transform="rotate(35.7 99.8489 150.276)" fill="#C9271D"/>
        <path fill-rule="evenodd" clip-rule="evenodd" d="M58.5072 140.819L20.61 168.051L45.8968 203.242C53.4167 213.707 67.9963 216.094 78.4614 208.574C88.9264 201.054 91.3139 186.475 83.794 176.01L58.5072 140.819ZM50.3864 146.655L28.7309 162.216L54.0176 197.406C58.3147 203.386 66.646 204.75 72.626 200.453C78.606 196.156 79.9703 187.825 75.6732 181.845L50.3864 146.655ZM69.3382 133.043L69.3429 133.033L118.136 155.255L90.9906 117.478L99.1114 111.642L138.014 165.781L129.942 171.582L129.928 171.613L129.909 171.605L129.893 171.617L129.873 171.589L81.0618 149.358L108.238 187.178L100.117 193.013L61.2141 138.874L69.3349 133.039L69.3382 133.043ZM115.434 128.646C107.914 118.181 110.302 103.601 120.767 96.0811C131.232 88.5612 145.812 90.9487 153.332 101.414L165.002 117.655C172.522 128.12 170.135 142.7 159.67 150.22C149.205 157.74 134.625 155.352 127.105 144.887L115.434 128.646ZM123.555 122.81C119.258 116.83 120.622 108.499 126.602 104.202C132.582 99.9049 140.914 101.269 145.211 107.249L156.881 123.491C161.179 129.471 159.814 137.802 153.834 142.099C147.854 146.396 139.523 145.032 135.226 139.052L123.555 122.81Z" fill="#141414"/>
        <path fill-rule="evenodd" clip-rule="evenodd" d="M116.196 123.994C108.676 113.529 111.064 98.949 121.529 91.4291C131.994 83.9092 146.573 86.2967 154.093 96.7617L165.764 113.003C173.284 123.468 170.896 138.048 160.431 145.568C149.966 153.088 135.387 150.7 127.867 140.235L116.196 123.994ZM124.317 118.158C120.02 112.178 121.384 103.847 127.364 99.5499C133.344 95.2528 141.675 96.6171 145.972 102.597L157.643 118.839C161.94 124.819 160.576 133.15 154.596 137.447C148.616 141.744 140.285 140.38 135.988 134.4L124.317 118.158ZM70.0999 128.391L70.1046 128.381L118.898 150.603L91.7522 112.826L99.873 106.99L138.776 161.129L130.704 166.93L130.689 166.961L130.671 166.953L130.655 166.965L130.635 166.936L81.8237 144.706L108.999 182.526L100.879 188.361L61.9759 134.222L70.0967 128.387L70.0999 128.391ZM59.2689 136.167L21.3717 163.399L46.6585 198.589C54.1784 209.055 68.7581 211.442 79.2231 203.922C89.6881 196.402 92.0756 181.823 84.5557 171.358L59.2689 136.167ZM76.4349 177.193L51.1481 142.003L29.4925 157.564L54.7793 192.754C59.0764 198.734 67.4076 200.098 73.3876 195.801C79.3677 191.504 80.7319 183.173 76.4349 177.193Z" fill="url(#paint0_linear_61_55)"/>
    </g>
    <defs>
        <linearGradient id="paint0_linear_61_55" x1="80.9245" y1="120.606" x2="119.837" y2="174.759" gradientUnits="userSpaceOnUse">
            <stop stop-color="#E1CC1B"/>
            <stop offset="1" stop-color="#E1E1E1"/>
        </linearGradient>
    </defs>
</svg>
