<svg width="200" height="300" viewBox="0 0 200 300" fill="none" xmlns="http://www.w3.org/2000/svg">
    <rect width="200" height="300" rx="20" fill="#E1E1E1"/>
    <mask id="mask0_165_1791" style="mask-type:alpha" maskUnits="userSpaceOnUse" x="10" y="10" width="180" height="280">
        <rect x="10" y="10" width="180" height="280" rx="10" fill="#141414"/>
    </mask>
    <g mask="url(#mask0_165_1791)">
        <rect x="10" y="10" width="180" height="280" rx="10" fill="#C9271D"/>
        <path fill-rule="evenodd" clip-rule="evenodd" d="M160.754 194.038C201.036 137.973 206.42 72.9303 172.781 48.7615C139.142 24.5927 79.2171 50.45 38.9358 106.515C-1.34551 162.581 -6.72998 227.623 26.9092 251.792C60.5485 275.961 120.473 250.104 160.754 194.038ZM156.694 191.121C195.364 137.298 201.26 75.3796 169.863 52.8221C138.467 30.2645 81.6665 55.61 42.9964 109.433C4.32636 163.256 -1.56994 225.174 29.8267 247.732C61.2233 270.289 118.024 244.944 156.694 191.121Z" fill="#E1E1E1"/>
        <path fill-rule="evenodd" clip-rule="evenodd" d="M123 113L88.3216 113L98.571 123.249L80.6065 141.214C74.7486 147.072 74.7486 156.569 80.6065 162.427L84.142 165.963L112.713 137.392L123 147.678L123 113ZM110.394 147.535C116.251 153.393 116.251 162.891 110.394 168.748L92.429 186.713L102.678 196.962L68 196.962L68 162.284L78.2868 172.571L106.858 144L110.394 147.535Z" fill="#141414"/>
        <mask id="path-6-inside-1_165_1791" fill="white">
            <path fill-rule="evenodd" clip-rule="evenodd" d="M128 108L93.3216 108L103.571 118.249L85.6065 136.214C79.7486 142.072 79.7486 151.569 85.6065 157.427L89.142 160.963L117.713 132.392L128 142.678L128 108ZM115.394 142.535C121.251 148.393 121.251 157.891 115.394 163.748L97.429 181.713L107.678 191.962L73 191.962L73 157.284L83.2868 167.571L111.858 139L115.394 142.535Z"/>
        </mask>
        <path fill-rule="evenodd" clip-rule="evenodd" d="M128 108L93.3216 108L103.571 118.249L85.6065 136.214C79.7486 142.072 79.7486 151.569 85.6065 157.427L89.142 160.963L117.713 132.392L128 142.678L128 108ZM115.394 142.535C121.251 148.393 121.251 157.891 115.394 163.748L97.429 181.713L107.678 191.962L73 191.962L73 157.284L83.2868 167.571L111.858 139L115.394 142.535Z" fill="#E1E1E1"/>
        <path d="M93.3216 108L93.3216 107L90.9074 107L92.6145 108.707L93.3216 108ZM128 108L129 108L129 107L128 107L128 108ZM103.571 118.249L104.278 118.957L104.985 118.249L104.278 117.542L103.571 118.249ZM85.6065 136.214L86.3136 136.921L86.3136 136.921L85.6065 136.214ZM85.6065 157.427L86.3136 156.72L86.3136 156.72L85.6065 157.427ZM89.142 160.963L88.4349 161.67L89.142 162.377L89.8491 161.67L89.142 160.963ZM117.713 132.392L118.42 131.684L117.713 130.977L117.006 131.684L117.713 132.392ZM128 142.678L127.293 143.385L129 145.093L129 142.678L128 142.678ZM115.394 163.748L114.686 163.041L114.686 163.041L115.394 163.748ZM115.394 142.535L116.101 141.828L116.101 141.828L115.394 142.535ZM97.429 181.713L96.7219 181.006L96.0147 181.713L96.7219 182.42L97.429 181.713ZM107.678 191.962L107.678 192.962L110.093 192.962L108.385 191.255L107.678 191.962ZM73 191.962L72 191.962L72 192.962L73 192.962L73 191.962ZM73 157.284L73.7071 156.577L72 154.87L72 157.284L73 157.284ZM83.2868 167.571L82.5797 168.278L83.2868 168.985L83.9939 168.278L83.2868 167.571ZM111.858 139L112.565 138.293L111.858 137.586L111.151 138.293L111.858 139ZM93.3216 109L128 109L128 107L93.3216 107L93.3216 109ZM104.278 117.542L94.0287 107.293L92.6145 108.707L102.864 118.957L104.278 117.542ZM86.3136 136.921L104.278 118.957L102.864 117.542L84.8994 135.507L86.3136 136.921ZM86.3136 156.72C80.8463 151.253 80.8463 142.388 86.3136 136.921L84.8994 135.507C78.651 141.755 78.651 151.886 84.8994 158.134L86.3136 156.72ZM89.8491 160.256L86.3136 156.72L84.8994 158.134L88.4349 161.67L89.8491 160.256ZM117.006 131.684L88.4349 160.256L89.8491 161.67L118.42 133.099L117.006 131.684ZM128.707 141.971L118.42 131.684L117.006 133.099L127.293 143.385L128.707 141.971ZM127 108L127 142.678L129 142.678L129 108L127 108ZM116.101 164.456C122.349 158.207 122.349 148.077 116.101 141.828L114.686 143.242C120.154 148.71 120.154 157.574 114.686 163.041L116.101 164.456ZM98.1361 182.42L116.101 164.456L114.686 163.041L96.7219 181.006L98.1361 182.42ZM96.7219 182.42L106.971 192.67L108.385 191.255L98.1361 181.006L96.7219 182.42ZM107.678 190.962L73 190.962L73 192.962L107.678 192.962L107.678 190.962ZM74 191.962L74 157.284L72 157.284L72 191.962L74 191.962ZM72.2929 157.991L82.5797 168.278L83.9939 166.864L73.7071 156.577L72.2929 157.991ZM111.151 138.293L82.5797 166.864L83.9939 168.278L112.565 139.707L111.151 138.293ZM116.101 141.828L112.565 138.293L111.151 139.707L114.686 143.242L116.101 141.828Z" fill="#141414" mask="url(#path-6-inside-1_165_1791)"/>
        <path fill-rule="evenodd" clip-rule="evenodd" d="M42.5 15L25.1608 15L30.2855 20.1247L21.3033 29.107C18.3743 32.0359 18.3743 36.7846 21.3033 39.7136L23.071 41.4813L37.3566 27.1958L42.5 32.3392L42.5 15ZM36.1968 32.2676C39.1257 35.1966 39.1257 39.9453 36.1968 42.8742L27.2145 51.8565L32.3392 56.9812L15 56.9812L15 39.642L20.1434 44.7855L34.429 30.4999L36.1968 32.2676Z" fill="#E1E1E1"/>
        <path fill-rule="evenodd" clip-rule="evenodd" d="M185.5 243L168.161 243L173.286 248.125L164.303 257.107C161.374 260.036 161.374 264.785 164.303 267.714L166.071 269.481L180.357 255.196L185.5 260.339L185.5 243ZM179.197 260.268C182.126 263.197 182.126 267.945 179.197 270.874L170.214 279.857L175.339 284.981L158 284.981L158 267.642L163.143 272.785L177.429 258.5L179.197 260.268Z" fill="#E1E1E1"/>
    </g>
</svg>
