<svg width="200" height="300" viewBox="0 0 200 300" fill="none" xmlns="http://www.w3.org/2000/svg">
    <rect width="200" height="300" rx="20" fill="#E1E1E1"/>
    <mask id="mask0_165_1918" style="mask-type:alpha" maskUnits="userSpaceOnUse" x="10" y="10" width="180" height="280">
        <rect x="10" y="10" width="180" height="280" rx="10" fill="#141414"/>
    </mask>
    <g mask="url(#mask0_165_1918)">
        <rect x="10" y="10" width="180" height="280" rx="10" fill="#C9271D"/>
        <path fill-rule="evenodd" clip-rule="evenodd" d="M160.754 194.038C201.036 137.973 206.42 72.9303 172.781 48.7615C139.142 24.5927 79.2171 50.45 38.9358 106.515C-1.34551 162.581 -6.72998 227.623 26.9092 251.792C60.5485 275.961 120.473 250.104 160.754 194.038ZM156.694 191.121C195.364 137.298 201.26 75.3796 169.863 52.8221C138.467 30.2645 81.6665 55.61 42.9964 109.433C4.32636 163.256 -1.56994 225.174 29.8267 247.732C61.2233 270.289 118.024 244.944 156.694 191.121Z" fill="#E1E1E1"/>
        <path fill-rule="evenodd" clip-rule="evenodd" d="M115.362 183.088C96.2306 194.134 72.8863 189.518 63.2213 172.777C53.5563 156.037 61.2306 133.512 80.3623 122.466C99.494 111.421 122.838 116.037 132.503 132.777C142.168 149.518 134.494 172.043 115.362 183.088ZM74.034 168.516C73.7125 168.047 73.4071 167.563 73.1187 167.063C66.2151 155.106 71.6968 139.017 85.3623 131.127C94.5023 125.85 104.988 125.577 112.997 129.553L74.034 168.516ZM81.9849 175.617L121.221 136.38C121.718 137.051 122.18 137.755 122.606 138.492C129.509 150.449 124.028 166.538 110.362 174.428C100.937 179.87 90.0799 179.99 81.9849 175.617Z" fill="#141414"/>
        <mask id="path-6-inside-1_165_1918" fill="white">
            <path fill-rule="evenodd" clip-rule="evenodd" d="M120.361 178.088C101.229 189.134 77.885 184.518 68.2201 167.777C58.5551 151.037 66.2294 128.512 85.3611 117.466C104.493 106.421 127.837 111.037 137.502 127.777C147.167 144.518 139.493 167.043 120.361 178.088ZM79.0328 163.516C78.7113 163.047 78.4059 162.563 78.1175 162.063C71.2139 150.106 76.6956 134.017 90.3611 126.127C99.5011 120.85 109.987 120.577 117.996 124.553L79.0328 163.516ZM86.9837 170.617L126.22 131.38C126.717 132.051 127.179 132.755 127.605 133.492C134.508 145.449 129.027 161.538 115.361 169.428C105.936 174.87 95.0787 174.99 86.9837 170.617Z"/>
        </mask>
        <path fill-rule="evenodd" clip-rule="evenodd" d="M120.361 178.088C101.229 189.134 77.885 184.518 68.2201 167.777C58.5551 151.037 66.2294 128.512 85.3611 117.466C104.493 106.421 127.837 111.037 137.502 127.777C147.167 144.518 139.493 167.043 120.361 178.088ZM79.0328 163.516C78.7113 163.047 78.4059 162.563 78.1175 162.063C71.2139 150.106 76.6956 134.017 90.3611 126.127C99.5011 120.85 109.987 120.577 117.996 124.553L79.0328 163.516ZM86.9837 170.617L126.22 131.38C126.717 132.051 127.179 132.755 127.605 133.492C134.508 145.449 129.027 161.538 115.361 169.428C105.936 174.87 95.0787 174.99 86.9837 170.617Z" fill="#E1E1E1"/>
        <path d="M68.2201 167.777L69.0861 167.277L69.0861 167.277L68.2201 167.777ZM120.361 178.088L119.861 177.222L119.861 177.222L120.361 178.088ZM85.3611 117.466L85.8611 118.333L85.3611 117.466ZM137.502 127.777L136.636 128.277L136.636 128.277L137.502 127.777ZM78.1175 162.063L77.2515 162.563L77.2515 162.563L78.1175 162.063ZM79.0328 163.516L78.208 164.081L78.8887 165.074L79.7399 164.223L79.0328 163.516ZM90.3611 126.127L90.8611 126.993L90.3611 126.127ZM117.996 124.553L118.703 125.26L119.687 124.276L118.44 123.658L117.996 124.553ZM126.22 131.38L127.024 130.785L126.333 129.853L125.513 130.673L126.22 131.38ZM86.9837 170.617L86.2766 169.91L85.3276 170.859L86.5084 171.497L86.9837 170.617ZM127.605 133.492L128.471 132.992L128.471 132.992L127.605 133.492ZM115.361 169.428L115.861 170.294L115.861 170.294L115.361 169.428ZM67.354 168.277C77.3558 185.601 101.363 190.211 120.861 178.954L119.861 177.222C101.095 188.057 78.4143 183.434 69.0861 167.277L67.354 168.277ZM84.8611 116.6C65.3633 127.858 57.3523 150.954 67.354 168.277L69.0861 167.277C59.7579 151.12 67.0954 129.167 85.8611 118.333L84.8611 116.6ZM138.368 127.277C128.366 109.954 104.359 105.343 84.8611 116.6L85.8611 118.333C104.627 107.498 127.308 112.12 136.636 128.277L138.368 127.277ZM120.861 178.954C140.359 167.697 148.37 144.601 138.368 127.277L136.636 128.277C145.964 144.434 138.627 166.388 119.861 177.222L120.861 178.954ZM77.2515 162.563C77.5527 163.085 77.8719 163.591 78.208 164.081L79.8576 162.951C79.5507 162.503 79.259 162.04 78.9835 161.563L77.2515 162.563ZM89.8611 125.261C75.8295 133.362 70.0111 150.022 77.2515 162.563L78.9835 161.563C72.4167 150.189 77.5616 134.671 90.8611 126.993L89.8611 125.261ZM118.44 123.658C110.109 119.521 99.2685 119.829 89.8611 125.261L90.8611 126.993C99.7337 121.87 109.865 121.633 117.551 125.449L118.44 123.658ZM79.7399 164.223L118.703 125.26L117.288 123.846L78.3257 162.809L79.7399 164.223ZM125.513 130.673L86.2766 169.91L87.6908 171.324L126.927 132.087L125.513 130.673ZM128.471 132.992C128.026 132.222 127.543 131.486 127.024 130.785L125.416 131.976C125.891 132.616 126.332 133.288 126.739 133.992L128.471 132.992ZM115.861 170.294C129.893 162.193 135.711 145.532 128.471 132.992L126.739 133.992C133.305 145.366 128.161 160.884 114.861 168.562L115.861 170.294ZM86.5084 171.497C94.9342 176.048 106.161 175.895 115.861 170.294L114.861 168.562C105.71 173.845 95.2232 173.931 87.459 169.737L86.5084 171.497Z" fill="#141414" mask="url(#path-6-inside-1_165_1918)"/>
        <path fill-rule="evenodd" clip-rule="evenodd" d="M43.1811 49.0441C33.6153 54.567 21.9431 52.2588 17.1106 43.8887C12.2781 35.5186 16.1153 24.2561 25.6811 18.7332C35.247 13.2104 46.9192 15.5186 51.7517 23.8887C56.5841 32.2588 52.747 43.5213 43.1811 49.0441ZM22.517 41.758C22.3563 41.5235 22.2035 41.2813 22.0594 41.0315C18.6076 35.0529 21.3484 27.0083 28.1811 23.0634C32.7512 20.4249 37.9942 20.2886 41.9984 22.2766L22.517 41.758ZM26.4925 45.3083L46.1106 25.6902C46.359 26.0254 46.5902 26.3774 46.8029 26.7458C50.2547 32.7245 47.5139 40.7691 40.6811 44.714C35.9684 47.4349 30.54 47.4948 26.4925 45.3083Z" fill="#E1E1E1"/>
        <path fill-rule="evenodd" clip-rule="evenodd" d="M156.681 251.733C166.247 246.21 177.919 248.519 182.752 256.889C187.584 265.259 183.747 276.521 174.181 282.044C164.615 287.567 152.943 285.259 148.111 276.889C143.278 268.519 147.115 257.256 156.681 251.733ZM177.345 259.019C177.506 259.254 177.659 259.496 177.803 259.746C181.255 265.724 178.514 273.769 171.681 277.714C167.111 280.352 161.868 280.489 157.864 278.501L177.345 259.019ZM173.37 255.469L153.752 275.087C153.503 274.752 153.272 274.4 153.059 274.032C149.608 268.053 152.348 260.008 159.181 256.063C163.894 253.342 169.322 253.283 173.37 255.469Z" fill="#E1E1E1"/>
    </g>
</svg>
